<svg width="236" height="212" viewBox="0 0 236 212" fill="none" xmlns="http://www.w3.org/2000/svg">
<path d="M130.21 118.229V158.999C130.21 162.243 128.924 165.354 126.635 167.648C124.346 169.942 121.241 171.23 118.003 171.23C114.766 171.23 111.661 169.942 109.372 167.648C107.083 165.354 105.796 162.243 105.796 158.999V118.229C105.796 114.986 107.083 111.875 109.372 109.581C111.661 107.287 114.766 105.998 118.003 105.998C121.241 105.998 124.346 107.287 126.635 109.581C128.924 111.875 130.21 114.986 130.21 118.229ZM158.754 117.016L154.685 157.786C154.365 161.014 155.336 164.237 157.387 166.747C159.438 169.256 162.4 170.847 165.621 171.169C166.028 171.169 166.445 171.23 166.842 171.23C169.868 171.227 172.785 170.099 175.027 168.063C177.269 166.027 178.677 163.229 178.977 160.212L183.046 119.442C183.327 116.236 182.335 113.048 180.285 110.57C178.235 108.091 175.293 106.522 172.097 106.203C168.9 105.884 165.707 106.84 163.209 108.864C160.712 110.889 159.111 113.818 158.754 117.016ZM77.2525 117.016C76.896 113.818 75.2954 110.889 72.7978 108.864C70.3001 106.84 67.1068 105.884 63.9103 106.203C60.7137 106.522 57.7716 108.091 55.7219 110.57C53.6721 113.048 52.68 116.236 52.9606 119.442L57.0296 160.212C57.3298 163.231 58.7391 166.03 60.9836 168.066C63.2281 170.102 66.1478 171.23 69.1755 171.23C69.5723 171.23 69.9893 171.23 70.3962 171.169C73.6174 170.847 76.5791 169.256 78.6299 166.747C80.6806 164.237 81.6525 161.014 81.3316 157.786L77.2525 117.016ZM235.943 79.0801L220.613 194.255C219.96 199.164 217.551 203.668 213.834 206.932C210.117 210.196 205.343 211.996 200.401 212H35.6063C30.6802 211.986 25.9254 210.187 22.2197 206.935C18.514 203.682 16.1075 199.197 15.4445 194.306L0.114538 79.1311C-0.123837 77.3999 0.0108344 75.6376 0.509478 73.9629C1.00812 72.2882 1.85916 70.74 3.00526 69.4226C4.15137 68.1053 5.56593 67.0493 7.15366 66.3258C8.74139 65.6023 10.4654 65.2282 12.2096 65.2286H55.4935L108.848 4.17574C109.994 2.86407 111.406 1.81293 112.99 1.09275C114.575 0.372572 116.294 0 118.034 0C119.774 0 121.493 0.372572 123.077 1.09275C124.662 1.81293 126.074 2.86407 127.22 4.17574L180.513 65.2286H223.797C225.537 65.2292 227.256 65.6022 228.839 66.3226C230.423 67.0431 231.835 68.0943 232.98 69.4059C234.125 70.7174 234.978 72.2591 235.48 73.9276C235.982 75.596 236.123 77.3528 235.892 79.0801H235.943ZM87.9438 65.2286H148.063L118.003 30.7984L87.9438 65.2286ZM209.851 89.6905H26.1561L39.1769 187.538H196.85L209.851 89.6905Z" fill="#87CEEB" fill-opacity="0.5"/>
</svg>
