<svg width="237" height="220" viewBox="0 0 237 220" fill="none" xmlns="http://www.w3.org/2000/svg">
<path fill-rule="evenodd" clip-rule="evenodd" d="M177.44 10.1193C177.323 8.65178 176.909 7.22251 176.223 5.91641C175.537 4.61032 174.593 3.45406 173.447 2.51637C172.3 1.57868 170.975 0.878694 169.55 0.45801C168.125 0.0373274 166.629 -0.0954637 165.151 0.0675297C163.673 0.230523 162.243 0.685974 160.947 1.40681C159.65 2.12765 158.513 3.09917 157.604 4.26361C156.694 5.42806 156.03 6.76168 155.651 8.18519C155.272 9.60871 155.186 11.0931 155.399 12.5501L165.532 102.855H152.706C128.446 102.855 109.866 124.073 105.414 147.663C101.993 165.216 96.0135 182.184 87.6623 198.035C80.3842 211.917 73.9641 220 73.9641 220H199.703C199.703 220 230.472 194.609 236.508 139.609C238.756 118.874 220.561 102.855 199.526 102.855H187.869L177.44 10.1193ZM55.4731 36.9602C52.5306 36.9602 49.7087 38.1173 47.628 40.1769C45.5474 42.2365 44.3785 45.0299 44.3785 47.9426C44.3785 50.8553 45.5474 53.6488 47.628 55.7084C49.7087 57.7679 52.5306 58.925 55.4731 58.925H122.041C124.983 58.925 127.805 57.7679 129.886 55.7084C131.967 53.6488 133.135 50.8553 133.135 47.9426C133.135 45.0299 131.967 42.2365 129.886 40.1769C127.805 38.1173 124.983 36.9602 122.041 36.9602H55.4731ZM11.0946 88.2114C8.15215 88.2114 5.33018 89.3685 3.24954 91.428C1.16889 93.4876 0 96.2811 0 99.1938C0 102.106 1.16889 104.9 3.24954 106.959C5.33018 109.019 8.15215 110.176 11.0946 110.176H92.4552C95.3977 110.176 98.2196 109.019 100.3 106.959C102.381 104.9 103.55 102.106 103.55 99.1938C103.55 96.2811 102.381 93.4876 100.3 91.428C98.2196 89.3685 95.3977 88.2114 92.4552 88.2114H11.0946ZM14.7928 150.445C14.7928 147.532 15.9617 144.739 18.0424 142.679C20.123 140.62 22.945 139.463 25.8875 139.463H62.8695C65.812 139.463 68.634 140.62 70.7146 142.679C72.7953 144.739 73.9641 147.532 73.9641 150.445C73.9641 153.358 72.7953 156.151 70.7146 158.211C68.634 160.27 65.812 161.427 62.8695 161.427H25.8875C22.945 161.427 20.123 160.27 18.0424 158.211C15.9617 156.151 14.7928 153.358 14.7928 150.445ZM112.322 198.035C118.136 185.354 123.86 169.627 127.233 151.69C130.458 134.586 142.692 124.819 152.692 124.819H199.54C204.452 124.819 208.682 126.723 211.33 129.256C212.461 130.239 213.333 131.479 213.874 132.869C214.415 134.258 214.608 135.757 214.437 137.237C211.848 160.988 203.964 177.93 197.085 188.693C195.021 191.951 192.743 195.072 190.265 198.035H175.487C183.461 187.697 188.609 172.732 188.609 157.766H177.514C172.322 175.763 161.656 188.341 145.532 198.035H112.322Z" fill="#87CEEB" fill-opacity="0.5"/>
</svg>
