<svg width="73" height="73" viewBox="0 0 73 73" fill="none" xmlns="http://www.w3.org/2000/svg">
<path d="M35.3374 73C32.9816 73 30.6086 72.7327 28.2185 72.1981C25.8284 71.6636 23.3826 70.8946 20.8812 69.8912C21.7378 61.2436 24.2364 53.1678 28.377 45.6638C32.5175 38.1597 37.836 31.549 44.3324 25.8316C36.4796 29.8338 29.6805 35.1224 23.9352 41.6974C18.1898 48.2723 14.1735 55.7764 11.8862 64.2095C11.6007 63.9951 11.3337 63.7636 11.0852 63.5149L10.28 62.7087C6.9247 59.3498 4.37327 55.5977 2.62567 51.4526C0.87808 47.3075 0.00285555 42.9838 0 38.4813C0 33.6216 0.963747 28.9762 2.89124 24.5452C4.81873 20.1143 7.49581 16.1836 10.9225 12.7531C16.7049 6.96429 24.2008 3.19511 33.4099 1.4456C42.619 -0.303921 55.5404 -0.465438 72.1739 0.961047C73.4589 18.0417 73.2448 31.0673 71.5314 40.0379C69.8181 49.0084 66.1059 56.351 60.3948 62.0655C56.8968 65.5674 52.9875 68.266 48.6671 70.1613C44.3466 72.0566 39.9034 73.0029 35.3374 73Z" fill="#2F4F4F"/>
</svg>
