<svg width="2241" height="397" viewBox="0 0 2241 397" fill="none" xmlns="http://www.w3.org/2000/svg">
<path d="M260.378 38.5409C262.574 38.2962 264.797 38.4954 266.914 39.1268C269.031 39.7583 271 40.8093 272.703 42.2167C274.406 43.6241 275.81 45.3598 276.829 47.3202C277.848 49.2804 278.463 51.4254 278.637 53.6278L278.638 53.6444L278.64 53.66L295.075 201.299L295.174 202.187H314.439C346.885 202.188 374.753 226.921 371.802 258.84L371.726 259.596C366.988 303.205 352.548 335.057 339.308 355.996C332.686 366.467 326.364 374.21 321.704 379.33C319.374 381.89 317.461 383.794 316.133 385.055C315.469 385.685 314.951 386.154 314.602 386.465C314.504 386.552 314.418 386.625 314.347 386.687H118.568C118.739 386.456 118.928 386.2 119.132 385.92C120.267 384.357 121.899 382.046 123.889 379.044C127.868 373.039 133.283 364.267 139.036 353.182C151.829 328.652 161.103 302.447 166.588 275.34L167.106 272.714L167.107 272.708C174.069 235.447 203.065 202.187 240.655 202.187H261.984L261.86 201.077L245.892 57.3094L245.89 57.2928L245.888 57.2772L245.834 56.8661C245.59 54.8116 245.735 52.7285 246.263 50.7255C246.825 48.5888 247.811 46.5865 249.163 44.8387C250.515 43.0909 252.204 41.6326 254.131 40.5507C256.057 39.4687 258.182 38.7855 260.378 38.5409ZM240.632 235.156C224.51 235.156 205.282 250.7 199.779 277.469L199.527 278.752C194.23 307.214 185.238 332.174 176.102 352.306L175.46 353.719H229.628L229.867 353.574C255.25 338.158 272.164 318.146 280.5 289.609H296.229C296.006 312.894 288.011 336.068 275.762 352.112L274.534 353.719H300.315L300.616 353.356C304.548 348.606 308.163 343.601 311.439 338.377L311.438 338.376C322.349 321.129 334.835 294.014 338.933 256.033L338.932 256.032C339.219 253.518 338.894 250.972 337.984 248.611C337.075 246.252 335.609 244.147 333.711 242.476C329.346 238.272 322.44 235.156 314.462 235.156H240.632ZM40.7969 260.469H99.0781C103.45 260.469 107.643 262.205 110.734 265.297C113.826 268.388 115.562 272.581 115.562 276.953C115.562 281.325 113.826 285.518 110.734 288.609C107.643 291.701 103.45 293.437 99.0781 293.437H40.7969C36.4249 293.437 32.232 291.701 29.1406 288.609C26.0493 285.518 24.3125 281.325 24.3125 276.953C24.3126 272.581 26.0493 268.388 29.1406 265.297C32.232 262.205 36.425 260.469 40.7969 260.469ZM17.4844 178.875H145.703C150.075 178.875 154.268 180.612 157.359 183.703C160.451 186.794 162.187 190.987 162.188 195.359C162.188 199.731 160.451 203.924 157.359 207.016C154.268 210.107 150.075 211.844 145.703 211.844H17.4844C13.1124 211.844 8.91954 210.107 5.82812 207.016C2.73681 203.924 1 199.731 1 195.359C1.00009 190.987 2.73678 186.794 5.82812 183.703C8.82295 180.708 12.8516 178.985 17.0752 178.881L17.4844 178.875ZM87.4219 97.2811H192.328C196.7 97.2811 200.893 99.0179 203.984 102.109C207.076 105.201 208.812 109.394 208.812 113.766C208.812 118.137 207.076 122.33 203.984 125.422C200.893 128.513 196.7 130.25 192.328 130.25H87.4219C83.0499 130.25 78.857 128.513 75.7656 125.422C72.6743 122.33 70.9375 118.137 70.9375 113.766C70.9376 109.394 72.6743 105.201 75.7656 102.109C78.857 99.0179 83.05 97.2811 87.4219 97.2811Z" fill="#F0F4F8" stroke="#D3D3D3" stroke-width="2"/>
<mask id="path-2-outside-1_2_14" maskUnits="userSpaceOnUse" x="317" y="0" width="1889" height="395" fill="black">
<rect fill="white" x="317" width="1889" height="395"/>
<path d="M319 388V38H465C487.333 38 506.167 41.3333 521.5 48C536.833 54.6667 548.333 64.6667 556 78C564 91 568 107 568 126C568 145 562.667 161.167 552 174.5C541.667 187.833 527.167 197 508.5 202V192C524.167 195.333 537.833 201.333 549.5 210C561.167 218.333 570.167 228.833 576.5 241.5C583.167 254.167 586.5 268.667 586.5 285C586.5 301.667 583.833 316.5 578.5 329.5C573.5 342.167 565.833 352.833 555.5 361.5C545.5 370.167 533.333 376.833 519 381.5C504.667 385.833 488.333 388 470 388H319ZM373 336H467C480.667 336 492.167 334 501.5 330C511.167 326 518.5 320.167 523.5 312.5C528.833 304.5 531.5 295 531.5 284C531.5 273.667 528.667 264.833 523 257.5C517.667 250.167 510 244.667 500 241C490 237 478.167 235 464.5 235H373V336ZM373 183H462C472 183 480.833 181 488.5 177C496.5 173 502.667 167.5 507 160.5C511.667 153.5 514 145.5 514 136.5C514 121.5 509 110 499 102C489 94 474.667 90 456 90H373V183ZM646.332 388V125.5H698.332V208L693.332 188C696.999 175.333 703.165 163.833 711.832 153.5C720.832 143.167 730.999 135 742.332 129C753.999 123 765.999 120 778.332 120C783.999 120 789.332 120.5 794.332 121.5C799.665 122.5 803.832 123.667 806.832 125L793.332 181C789.332 179.333 784.832 178 779.832 177C775.165 175.667 770.499 175 765.832 175C756.832 175 748.165 176.833 739.832 180.5C731.832 183.833 724.665 188.667 718.332 195C712.332 201 707.499 208.167 703.832 216.5C700.165 224.5 698.332 233.333 698.332 243V388H646.332ZM856.492 388V125.5H907.992V388H856.492ZM881.492 67.5C870.492 67.5 861.992 64.6666 855.992 59C849.992 53.3333 846.992 45.3333 846.992 35C846.992 25.3333 849.992 17.5 855.992 11.5C862.326 5.49999 870.826 2.49999 881.492 2.49999C892.492 2.49999 900.992 5.33332 906.992 11C912.992 16.6666 915.992 24.6666 915.992 35C915.992 44.6666 912.826 52.5 906.492 58.5C900.492 64.5 892.159 67.5 881.492 67.5ZM988.152 388V18H1039.65V388H988.152ZM1113.64 388V18H1165.14V388H1113.64ZM1351.25 393C1325.58 393 1302.58 387.167 1282.25 375.5C1262.25 363.5 1246.41 347.333 1234.75 327C1223.08 306.333 1217.25 282.833 1217.25 256.5C1217.25 230.167 1223.08 206.833 1234.75 186.5C1246.41 165.833 1262.25 149.667 1282.25 138C1302.58 126 1325.58 120 1351.25 120C1376.58 120 1399.25 126 1419.25 138C1439.58 149.667 1455.58 165.833 1467.25 186.5C1478.91 206.833 1484.75 230.167 1484.75 256.5C1484.75 282.833 1478.91 306.333 1467.25 327C1455.58 347.333 1439.58 363.5 1419.25 375.5C1399.25 387.167 1376.58 393 1351.25 393ZM1351.25 346C1366.91 346 1380.91 342.167 1393.25 334.5C1405.58 326.5 1415.25 315.833 1422.25 302.5C1429.25 288.833 1432.58 273.5 1432.25 256.5C1432.58 239.167 1429.25 223.833 1422.25 210.5C1415.25 196.833 1405.58 186.167 1393.25 178.5C1380.91 170.833 1366.91 167 1351.25 167C1335.58 167 1321.41 171 1308.75 179C1296.41 186.667 1286.75 197.333 1279.75 211C1272.75 224.333 1269.41 239.5 1269.75 256.5C1269.41 273.5 1272.75 288.833 1279.75 302.5C1286.75 315.833 1296.41 326.5 1308.75 334.5C1321.41 342.167 1335.58 346 1351.25 346ZM1619.54 388L1508.54 125.5H1564.04L1644.04 322L1634.54 326.5L1720.04 125.5H1773.04L1656.54 388H1619.54ZM1828.66 388V125.5H1880.16V388H1828.66ZM1853.66 67.5C1842.66 67.5 1834.16 64.6666 1828.16 59C1822.16 53.3333 1819.16 45.3333 1819.16 35C1819.16 25.3333 1822.16 17.5 1828.16 11.5C1834.49 5.49999 1842.99 2.49999 1853.66 2.49999C1864.66 2.49999 1873.16 5.33332 1879.16 11C1885.16 16.6666 1888.16 24.6666 1888.16 35C1888.16 44.6666 1884.99 52.5 1878.66 58.5C1872.66 64.5 1864.33 67.5 1853.66 67.5ZM2060.32 393C2038.65 393 2018.82 387 2000.82 375C1983.15 363 1968.99 346.667 1958.32 326C1947.65 305.333 1942.32 282 1942.32 256C1942.32 229.667 1947.65 206.333 1958.32 186C1969.32 165.333 1983.99 149.167 2002.32 137.5C2020.99 125.833 2041.82 120 2064.82 120C2078.49 120 2090.99 122 2102.32 126C2113.65 130 2123.49 135.667 2131.82 143C2140.49 150 2147.49 158.167 2152.82 167.5C2158.49 176.833 2161.99 186.833 2163.32 197.5L2151.82 193.5V125.5H2203.82V388H2151.82V325.5L2163.82 322C2161.82 331 2157.65 339.833 2151.32 348.5C2145.32 356.833 2137.49 364.333 2127.82 371C2118.49 377.667 2107.99 383 2096.32 387C2084.99 391 2072.99 393 2060.32 393ZM2073.82 345.5C2089.49 345.5 2103.32 341.667 2115.32 334C2127.32 326.333 2136.65 315.833 2143.32 302.5C2150.32 288.833 2153.82 273.333 2153.82 256C2153.82 239 2150.32 223.833 2143.32 210.5C2136.65 197.167 2127.32 186.667 2115.32 179C2103.32 171.333 2089.49 167.5 2073.82 167.5C2058.49 167.5 2044.82 171.333 2032.82 179C2021.15 186.667 2011.82 197.167 2004.82 210.5C1998.15 223.833 1994.82 239 1994.82 256C1994.82 273.333 1998.15 288.833 2004.82 302.5C2011.82 315.833 2021.15 326.333 2032.82 334C2044.82 341.667 2058.49 345.5 2073.82 345.5Z"/>
</mask>
<path d="M319 388V38H465C487.333 38 506.167 41.3333 521.5 48C536.833 54.6667 548.333 64.6667 556 78C564 91 568 107 568 126C568 145 562.667 161.167 552 174.5C541.667 187.833 527.167 197 508.5 202V192C524.167 195.333 537.833 201.333 549.5 210C561.167 218.333 570.167 228.833 576.5 241.5C583.167 254.167 586.5 268.667 586.5 285C586.5 301.667 583.833 316.5 578.5 329.5C573.5 342.167 565.833 352.833 555.5 361.5C545.5 370.167 533.333 376.833 519 381.5C504.667 385.833 488.333 388 470 388H319ZM373 336H467C480.667 336 492.167 334 501.5 330C511.167 326 518.5 320.167 523.5 312.5C528.833 304.5 531.5 295 531.5 284C531.5 273.667 528.667 264.833 523 257.5C517.667 250.167 510 244.667 500 241C490 237 478.167 235 464.5 235H373V336ZM373 183H462C472 183 480.833 181 488.5 177C496.5 173 502.667 167.5 507 160.5C511.667 153.5 514 145.5 514 136.5C514 121.5 509 110 499 102C489 94 474.667 90 456 90H373V183ZM646.332 388V125.5H698.332V208L693.332 188C696.999 175.333 703.165 163.833 711.832 153.5C720.832 143.167 730.999 135 742.332 129C753.999 123 765.999 120 778.332 120C783.999 120 789.332 120.5 794.332 121.5C799.665 122.5 803.832 123.667 806.832 125L793.332 181C789.332 179.333 784.832 178 779.832 177C775.165 175.667 770.499 175 765.832 175C756.832 175 748.165 176.833 739.832 180.5C731.832 183.833 724.665 188.667 718.332 195C712.332 201 707.499 208.167 703.832 216.5C700.165 224.5 698.332 233.333 698.332 243V388H646.332ZM856.492 388V125.5H907.992V388H856.492ZM881.492 67.5C870.492 67.5 861.992 64.6666 855.992 59C849.992 53.3333 846.992 45.3333 846.992 35C846.992 25.3333 849.992 17.5 855.992 11.5C862.326 5.49999 870.826 2.49999 881.492 2.49999C892.492 2.49999 900.992 5.33332 906.992 11C912.992 16.6666 915.992 24.6666 915.992 35C915.992 44.6666 912.826 52.5 906.492 58.5C900.492 64.5 892.159 67.5 881.492 67.5ZM988.152 388V18H1039.65V388H988.152ZM1113.64 388V18H1165.14V388H1113.64ZM1351.25 393C1325.58 393 1302.58 387.167 1282.25 375.5C1262.25 363.5 1246.41 347.333 1234.75 327C1223.08 306.333 1217.25 282.833 1217.25 256.5C1217.25 230.167 1223.08 206.833 1234.75 186.5C1246.41 165.833 1262.25 149.667 1282.25 138C1302.58 126 1325.58 120 1351.25 120C1376.58 120 1399.25 126 1419.25 138C1439.58 149.667 1455.58 165.833 1467.25 186.5C1478.91 206.833 1484.75 230.167 1484.75 256.5C1484.75 282.833 1478.91 306.333 1467.25 327C1455.58 347.333 1439.58 363.5 1419.25 375.5C1399.25 387.167 1376.58 393 1351.25 393ZM1351.25 346C1366.91 346 1380.91 342.167 1393.25 334.5C1405.58 326.5 1415.25 315.833 1422.25 302.5C1429.25 288.833 1432.58 273.5 1432.25 256.5C1432.58 239.167 1429.25 223.833 1422.25 210.5C1415.25 196.833 1405.58 186.167 1393.25 178.5C1380.91 170.833 1366.91 167 1351.25 167C1335.58 167 1321.41 171 1308.75 179C1296.41 186.667 1286.75 197.333 1279.75 211C1272.75 224.333 1269.41 239.5 1269.75 256.5C1269.41 273.5 1272.75 288.833 1279.75 302.5C1286.75 315.833 1296.41 326.5 1308.75 334.5C1321.41 342.167 1335.58 346 1351.25 346ZM1619.54 388L1508.54 125.5H1564.04L1644.04 322L1634.54 326.5L1720.04 125.5H1773.04L1656.54 388H1619.54ZM1828.66 388V125.5H1880.16V388H1828.66ZM1853.66 67.5C1842.66 67.5 1834.16 64.6666 1828.16 59C1822.16 53.3333 1819.16 45.3333 1819.16 35C1819.16 25.3333 1822.16 17.5 1828.16 11.5C1834.49 5.49999 1842.99 2.49999 1853.66 2.49999C1864.66 2.49999 1873.16 5.33332 1879.16 11C1885.16 16.6666 1888.16 24.6666 1888.16 35C1888.16 44.6666 1884.99 52.5 1878.66 58.5C1872.66 64.5 1864.33 67.5 1853.66 67.5ZM2060.32 393C2038.65 393 2018.82 387 2000.82 375C1983.15 363 1968.99 346.667 1958.32 326C1947.65 305.333 1942.32 282 1942.32 256C1942.32 229.667 1947.65 206.333 1958.32 186C1969.32 165.333 1983.99 149.167 2002.32 137.5C2020.99 125.833 2041.82 120 2064.82 120C2078.49 120 2090.99 122 2102.32 126C2113.65 130 2123.49 135.667 2131.82 143C2140.49 150 2147.49 158.167 2152.82 167.5C2158.49 176.833 2161.99 186.833 2163.32 197.5L2151.82 193.5V125.5H2203.82V388H2151.82V325.5L2163.82 322C2161.82 331 2157.65 339.833 2151.32 348.5C2145.32 356.833 2137.49 364.333 2127.82 371C2118.49 377.667 2107.99 383 2096.32 387C2084.99 391 2072.99 393 2060.32 393ZM2073.82 345.5C2089.49 345.5 2103.32 341.667 2115.32 334C2127.32 326.333 2136.65 315.833 2143.32 302.5C2150.32 288.833 2153.82 273.333 2153.82 256C2153.82 239 2150.32 223.833 2143.32 210.5C2136.65 197.167 2127.32 186.667 2115.32 179C2103.32 171.333 2089.49 167.5 2073.82 167.5C2058.49 167.5 2044.82 171.333 2032.82 179C2021.15 186.667 2011.82 197.167 2004.82 210.5C1998.15 223.833 1994.82 239 1994.82 256C1994.82 273.333 1998.15 288.833 2004.82 302.5C2011.82 315.833 2021.15 326.333 2032.82 334C2044.82 341.667 2058.49 345.5 2073.82 345.5Z" fill="#F0F4F8"/>
<path d="M319 388H317V390H319V388ZM319 38V36H317V38H319ZM521.5 48L520.703 49.8341L521.5 48ZM556 78L554.266 78.9969L554.281 79.0228L554.297 79.0482L556 78ZM552 174.5L550.438 173.251L550.429 173.263L550.419 173.275L552 174.5ZM508.5 202H506.5V204.606L509.017 203.932L508.5 202ZM508.5 192L508.916 190.044L506.5 189.53V192H508.5ZM549.5 210L548.307 211.605L548.322 211.617L548.338 211.627L549.5 210ZM576.5 241.5L574.711 242.394L574.72 242.413L574.73 242.431L576.5 241.5ZM578.5 329.5L576.65 328.741L576.645 328.753L576.64 328.766L578.5 329.5ZM555.5 361.5L554.215 359.968L554.202 359.978L554.19 359.989L555.5 361.5ZM519 381.5L519.579 383.414L519.599 383.408L519.619 383.402L519 381.5ZM373 336H371V338H373V336ZM501.5 330L500.735 328.152L500.724 328.157L500.712 328.162L501.5 330ZM523.5 312.5L521.836 311.391L521.83 311.399L521.825 311.407L523.5 312.5ZM523 257.5L521.383 258.676L521.4 258.7L521.417 258.723L523 257.5ZM500 241L499.257 242.857L499.284 242.868L499.311 242.878L500 241ZM373 235V233H371V235H373ZM373 183H371V185H373V183ZM488.5 177L487.606 175.211L487.59 175.219L487.575 175.227L488.5 177ZM507 160.5L505.336 159.391L505.317 159.419L505.299 159.447L507 160.5ZM373 90V88H371V90H373ZM319 388H321V38H319H317V388H319ZM319 38V40H465V38V36H319V38ZM465 38V40C487.146 40 505.69 43.307 520.703 49.8341L521.5 48L522.297 46.1659C506.643 39.3597 487.52 36 465 36V38ZM521.5 48L520.703 49.8341C535.678 56.3453 546.833 66.0689 554.266 78.9969L556 78L557.734 77.0031C549.834 63.2644 537.988 52.988 522.297 46.1659L521.5 48ZM556 78L554.297 79.0482C562.06 91.6641 566 107.28 566 126H568H570C570 106.72 565.94 90.3358 557.703 76.9518L556 78ZM568 126H566C566 144.6 560.789 160.312 550.438 173.251L552 174.5L553.562 175.749C564.544 162.021 570 145.4 570 126H568ZM552 174.5L550.419 173.275C540.392 186.214 526.291 195.164 507.983 200.068L508.5 202L509.017 203.932C528.042 198.836 542.942 189.453 553.581 175.725L552 174.5ZM508.5 202H510.5V192H508.5H506.5V202H508.5ZM508.5 192L508.084 193.956C523.498 197.236 536.894 203.127 548.307 211.605L549.5 210L550.693 208.395C538.773 199.54 524.835 193.431 508.916 190.044L508.5 192ZM549.5 210L548.338 211.627C559.742 219.774 568.526 230.023 574.711 242.394L576.5 241.5L578.289 240.606C571.808 227.643 562.591 216.893 550.662 208.373L549.5 210ZM576.5 241.5L574.73 242.431C581.226 254.773 584.5 268.945 584.5 285H586.5H588.5C588.5 268.388 585.108 253.561 578.27 240.568L576.5 241.5ZM586.5 285H584.5C584.5 301.454 581.868 316.022 576.65 328.741L578.5 329.5L580.35 330.259C585.799 316.978 588.5 301.879 588.5 285H586.5ZM578.5 329.5L576.64 328.766C571.761 341.126 564.29 351.517 554.215 359.968L555.5 361.5L556.785 363.032C567.376 354.15 575.239 343.208 580.36 330.234L578.5 329.5ZM555.5 361.5L554.19 359.989C544.418 368.458 532.495 375.003 518.381 379.598L519 381.5L519.619 383.402C534.171 378.664 546.582 371.876 556.81 363.011L555.5 361.5ZM519 381.5L518.421 379.586C504.312 383.851 488.179 386 470 386V388V390C488.487 390 505.021 387.816 519.579 383.414L519 381.5ZM470 388V386H319V388V390H470V388ZM373 336V338H467V336V334H373V336ZM467 336V338C480.849 338 492.635 335.975 502.288 331.838L501.5 330L500.712 328.162C491.698 332.025 480.484 334 467 334V336ZM501.5 330L502.265 331.848C512.249 327.717 519.924 321.644 525.175 313.593L523.5 312.5L521.825 311.407C517.076 318.69 510.084 324.283 500.735 328.152L501.5 330ZM523.5 312.5L525.164 313.609C530.747 305.235 533.5 295.336 533.5 284H531.5H529.5C529.5 294.664 526.92 303.765 521.836 311.391L523.5 312.5ZM531.5 284H533.5C533.5 273.278 530.551 264.001 524.583 256.277L523 257.5L521.417 258.723C526.782 265.666 529.5 274.056 529.5 284H531.5ZM523 257.5L524.617 256.324C519.012 248.617 510.994 242.901 500.689 239.122L500 241L499.311 242.878C509.006 246.432 516.321 251.717 521.383 258.676L523 257.5ZM500 241L500.743 239.143C490.452 235.027 478.355 233 464.5 233V235V237C477.978 237 489.548 238.973 499.257 242.857L500 241ZM464.5 235V233H373V235V237H464.5V235ZM373 235H371V336H373H375V235H373ZM373 183V185H462V183V181H373V183ZM462 183V185C472.272 185 481.431 182.944 489.425 178.773L488.5 177L487.575 175.227C480.236 179.056 471.728 181 462 181V183ZM488.5 177L489.394 178.789C497.696 174.638 504.155 168.895 508.701 161.553L507 160.5L505.299 159.447C501.178 166.105 495.304 171.362 487.606 175.211L488.5 177ZM507 160.5L508.664 161.609C513.565 154.258 516 145.866 516 136.5H514H512C512 145.134 509.768 152.742 505.336 159.391L507 160.5ZM514 136.5H516C516 121.009 510.808 108.885 500.249 100.438L499 102L497.751 103.562C507.192 111.115 512 121.991 512 136.5H514ZM499 102L500.249 100.438C489.764 92.0502 474.919 88 456 88V90V92C474.414 92 488.236 95.9498 497.751 103.562L499 102ZM456 90V88H373V90V92H456V90ZM373 90H371V183H373H375V90H373ZM646.332 388H644.332V390H646.332V388ZM646.332 125.5V123.5H644.332V125.5H646.332ZM698.332 125.5H700.332V123.5H698.332V125.5ZM698.332 208L696.392 208.485L700.332 208H698.332ZM693.332 188L691.411 187.444L691.261 187.962L691.392 188.485L693.332 188ZM711.832 153.5L710.324 152.186L710.312 152.2L710.3 152.215L711.832 153.5ZM742.332 129L741.417 127.221L741.407 127.227L741.396 127.232L742.332 129ZM794.332 121.5L793.94 123.461L793.952 123.464L793.963 123.466L794.332 121.5ZM806.832 125L808.776 125.469L809.167 123.849L807.644 123.172L806.832 125ZM793.332 181L792.563 182.846L794.727 183.748L795.276 181.469L793.332 181ZM779.832 177L779.283 178.923L779.36 178.945L779.44 178.961L779.832 177ZM739.832 180.5L740.601 182.346L740.619 182.339L740.638 182.331L739.832 180.5ZM718.332 195L719.746 196.414L718.332 195ZM703.832 216.5L705.65 217.333L705.657 217.319L705.663 217.305L703.832 216.5ZM698.332 388V390H700.332V388H698.332ZM646.332 388H648.332V125.5H646.332H644.332V388H646.332ZM646.332 125.5V127.5H698.332V125.5V123.5H646.332V125.5ZM698.332 125.5H696.332V208H698.332H700.332V125.5H698.332ZM698.332 208L700.272 207.515L695.272 187.515L693.332 188L691.392 188.485L696.392 208.485L698.332 208ZM693.332 188L695.253 188.556C698.841 176.163 704.872 164.91 713.364 154.785L711.832 153.5L710.3 152.215C701.458 162.756 695.157 174.504 691.411 187.444L693.332 188ZM711.832 153.5L713.34 154.814C722.19 144.653 732.166 136.645 743.268 130.768L742.332 129L741.396 127.232C729.831 133.355 719.474 141.681 710.324 152.186L711.832 153.5ZM742.332 129L743.247 130.779C754.649 124.915 766.337 122 778.332 122V120V118C765.66 118 753.348 121.085 741.417 127.221L742.332 129ZM778.332 120V122C783.881 122 789.082 122.49 793.94 123.461L794.332 121.5L794.724 119.539C789.582 118.51 784.116 118 778.332 118V120ZM794.332 121.5L793.963 123.466C799.229 124.453 803.224 125.585 806.02 126.828L806.832 125L807.644 123.172C804.44 121.748 800.101 120.547 794.701 119.534L794.332 121.5ZM806.832 125L804.888 124.531L791.388 180.531L793.332 181L795.276 181.469L808.776 125.469L806.832 125ZM793.332 181L794.101 179.154C789.961 177.429 785.331 176.06 780.224 175.039L779.832 177L779.44 178.961C784.333 179.94 788.703 181.238 792.563 182.846L793.332 181ZM779.832 177L780.381 175.077C775.543 173.695 770.692 173 765.832 173V175V177C770.306 177 774.787 177.639 779.283 178.923L779.832 177ZM765.832 175V173C756.551 173 747.611 174.892 739.027 178.669L739.832 180.5L740.638 182.331C748.72 178.774 757.113 177 765.832 177V175ZM739.832 180.5L739.063 178.654C730.814 182.091 723.43 187.074 716.918 193.586L718.332 195L719.746 196.414C725.901 190.259 732.851 185.576 740.601 182.346L739.832 180.5ZM718.332 195L716.918 193.586C710.73 199.774 705.761 207.151 702.001 215.695L703.832 216.5L705.663 217.305C709.237 209.182 713.934 202.226 719.746 196.414L718.332 195ZM703.832 216.5L702.014 215.667C698.216 223.953 696.332 233.074 696.332 243H698.332H700.332C700.332 233.592 702.115 225.047 705.65 217.333L703.832 216.5ZM698.332 243H696.332V388H698.332H700.332V243H698.332ZM698.332 388V386H646.332V388V390H698.332V388ZM856.492 388H854.492V390H856.492V388ZM856.492 125.5V123.5H854.492V125.5H856.492ZM907.992 125.5H909.992V123.5H907.992V125.5ZM907.992 388V390H909.992V388H907.992ZM855.992 59L857.365 57.5459V57.5459L855.992 59ZM855.992 11.5L854.617 10.0481L854.597 10.0667L854.578 10.0858L855.992 11.5ZM906.992 11L905.619 12.454V12.454L906.992 11ZM906.492 58.5L905.117 57.0481L905.097 57.0667L905.078 57.0858L906.492 58.5ZM856.492 388H858.492V125.5H856.492H854.492V388H856.492ZM856.492 125.5V127.5H907.992V125.5V123.5H856.492V125.5ZM907.992 125.5H905.992V388H907.992H909.992V125.5H907.992ZM907.992 388V386H856.492V388V390H907.992V388ZM881.492 67.5V65.5C870.829 65.5 862.884 62.7583 857.365 57.5459L855.992 59L854.619 60.454C861.1 66.5749 870.156 69.5 881.492 69.5V67.5ZM855.992 59L857.365 57.5459C851.862 52.3478 848.992 44.9308 848.992 35H846.992H844.992C844.992 45.7358 848.123 54.3188 854.619 60.454L855.992 59ZM846.992 35H848.992C848.992 25.7834 851.835 18.4859 857.406 12.9142L855.992 11.5L854.578 10.0858C848.15 16.5141 844.992 24.8832 844.992 35H846.992ZM855.992 11.5L857.368 12.9519C863.251 7.37863 871.217 4.49999 881.492 4.49999V2.49999V0.499986C870.434 0.499986 861.401 3.62134 854.617 10.0481L855.992 11.5ZM881.492 2.49999V4.49999C892.156 4.49999 900.1 7.24162 905.619 12.454L906.992 11L908.365 9.54597C901.884 3.42502 892.829 0.499986 881.492 0.499986V2.49999ZM906.992 11L905.619 12.454C911.123 17.6521 913.992 25.0691 913.992 35H915.992H917.992C917.992 24.2642 914.862 15.6812 908.365 9.54597L906.992 11ZM915.992 35H913.992C913.992 44.1831 911.006 51.4686 905.117 57.0481L906.492 58.5L907.868 59.9519C914.645 53.5313 917.992 45.1502 917.992 35H915.992ZM906.492 58.5L905.078 57.0858C899.544 62.62 891.772 65.5 881.492 65.5V67.5V69.5C892.546 69.5 901.441 66.38 907.906 59.9142L906.492 58.5ZM988.152 388H986.152V390H988.152V388ZM988.152 18V16H986.152V18H988.152ZM1039.65 18H1041.65V16H1039.65V18ZM1039.65 388V390H1041.65V388H1039.65ZM988.152 388H990.152V18H988.152H986.152V388H988.152ZM988.152 18V20H1039.65V18V16H988.152V18ZM1039.65 18H1037.65V388H1039.65H1041.65V18H1039.65ZM1039.65 388V386H988.152V388V390H1039.65V388ZM1113.64 388H1111.64V390H1113.64V388ZM1113.64 18V16H1111.64V18H1113.64ZM1165.14 18H1167.14V16H1165.14V18ZM1165.14 388V390H1167.14V388H1165.14ZM1113.64 388H1115.64V18H1113.64H1111.64V388H1113.64ZM1113.64 18V20H1165.14V18V16H1113.64V18ZM1165.14 18H1163.14V388H1165.14H1167.14V18H1165.14ZM1165.14 388V386H1113.64V388V390H1165.14V388ZM1282.25 375.5L1281.22 377.215L1281.23 377.225L1281.25 377.235L1282.25 375.5ZM1234.75 327L1233 327.983L1233.01 327.995L1234.75 327ZM1234.75 186.5L1236.48 187.495L1236.49 187.483L1234.75 186.5ZM1282.25 138L1283.25 139.728L1283.26 139.722L1282.25 138ZM1419.25 138L1418.22 139.715L1418.23 139.725L1418.25 139.735L1419.25 138ZM1467.25 186.5L1465.5 187.483L1465.51 187.495L1467.25 186.5ZM1467.25 327L1468.98 327.995L1468.99 327.983L1467.25 327ZM1419.25 375.5L1420.25 377.228L1420.26 377.222L1419.25 375.5ZM1393.25 334.5L1394.3 336.199L1394.32 336.188L1394.33 336.178L1393.25 334.5ZM1422.25 302.5L1424.02 303.43L1424.02 303.421L1424.03 303.412L1422.25 302.5ZM1432.25 256.5L1430.25 256.462L1430.25 256.5L1430.25 256.539L1432.25 256.5ZM1422.25 210.5L1420.47 211.412L1420.47 211.421L1420.48 211.43L1422.25 210.5ZM1308.75 179L1309.8 180.699L1309.81 180.695L1309.81 180.691L1308.75 179ZM1279.75 211L1281.52 211.93L1281.52 211.921L1281.53 211.912L1279.75 211ZM1269.75 256.5L1271.75 256.539L1271.75 256.5L1271.75 256.461L1269.75 256.5ZM1279.75 302.5L1277.97 303.412L1277.97 303.421L1277.98 303.43L1279.75 302.5ZM1308.75 334.5L1307.66 336.178L1307.68 336.195L1307.71 336.211L1308.75 334.5ZM1351.25 393V391C1325.89 391 1303.24 385.242 1283.24 373.765L1282.25 375.5L1281.25 377.235C1301.92 389.091 1325.26 395 1351.25 395V393ZM1282.25 375.5L1283.28 373.785C1263.57 361.962 1247.98 346.043 1236.48 326.005L1234.75 327L1233.01 327.995C1244.85 348.623 1260.92 365.038 1281.22 377.215L1282.25 375.5ZM1234.75 327L1236.49 326.017C1225.01 305.682 1219.25 282.527 1219.25 256.5H1217.25H1215.25C1215.25 283.139 1221.15 306.985 1233 327.983L1234.75 327ZM1217.25 256.5H1219.25C1219.25 230.472 1225.01 207.49 1236.48 187.495L1234.75 186.5L1233.01 185.505C1221.15 206.177 1215.25 229.861 1215.25 256.5H1217.25ZM1234.75 186.5L1236.49 187.483C1247.98 167.117 1263.57 151.211 1283.25 139.728L1282.25 138L1281.24 136.272C1260.92 148.122 1244.84 164.549 1233 185.517L1234.75 186.5ZM1282.25 138L1283.26 139.722C1303.26 127.92 1325.9 122 1351.25 122V120V118C1325.25 118 1301.9 124.08 1281.23 136.278L1282.25 138ZM1351.25 120V122C1376.25 122 1398.55 127.917 1418.22 139.715L1419.25 138L1420.28 136.285C1399.94 124.083 1376.91 118 1351.25 118V120ZM1419.25 138L1418.25 139.735C1438.27 151.22 1454.01 167.125 1465.5 187.483L1467.25 186.5L1468.99 185.517C1457.15 164.541 1440.89 148.113 1420.24 136.265L1419.25 138ZM1467.25 186.5L1465.51 187.495C1476.98 207.49 1482.75 230.472 1482.75 256.5H1484.75H1486.75C1486.75 229.861 1480.84 206.177 1468.98 185.505L1467.25 186.5ZM1484.75 256.5H1482.75C1482.75 282.527 1476.98 305.682 1465.5 326.017L1467.25 327L1468.99 327.983C1480.84 306.985 1486.75 283.139 1486.75 256.5H1484.75ZM1467.25 327L1465.51 326.005C1454.02 346.035 1438.27 361.952 1418.23 373.778L1419.25 375.5L1420.26 377.222C1440.89 365.048 1457.14 348.631 1468.98 327.995L1467.25 327ZM1419.25 375.5L1418.24 373.772C1398.57 385.244 1376.26 391 1351.25 391V393V395C1376.9 395 1399.92 389.089 1420.25 377.228L1419.25 375.5ZM1351.25 346V348C1367.26 348 1381.63 344.078 1394.3 336.199L1393.25 334.5L1392.19 332.801C1380.2 340.256 1366.57 344 1351.25 344V346ZM1393.25 334.5L1394.33 336.178C1406.96 327.986 1416.86 317.059 1424.02 303.43L1422.25 302.5L1420.48 301.57C1413.63 314.608 1404.2 325.014 1392.16 332.822L1393.25 334.5ZM1422.25 302.5L1424.03 303.412C1431.19 289.421 1434.58 273.755 1434.25 256.461L1432.25 256.5L1430.25 256.539C1430.57 273.245 1427.3 288.246 1420.47 301.588L1422.25 302.5ZM1432.25 256.5L1434.25 256.538C1434.58 238.92 1431.2 223.244 1424.02 209.57L1422.25 210.5L1420.48 211.43C1427.3 224.422 1430.57 239.414 1430.25 256.462L1432.25 256.5ZM1422.25 210.5L1424.03 209.588C1416.87 195.618 1406.96 184.671 1394.3 176.801L1393.25 178.5L1392.19 180.199C1404.2 187.662 1413.62 198.049 1420.47 211.412L1422.25 210.5ZM1393.25 178.5L1394.3 176.801C1381.63 168.922 1367.26 165 1351.25 165V167V169C1366.57 169 1380.2 172.744 1392.19 180.199L1393.25 178.5ZM1351.25 167V165C1335.22 165 1320.68 169.098 1307.68 177.309L1308.75 179L1309.81 180.691C1322.15 172.902 1335.94 169 1351.25 169V167ZM1308.75 179L1307.69 177.301C1295.03 185.171 1285.12 196.118 1277.97 210.088L1279.75 211L1281.53 211.912C1288.37 198.549 1297.79 188.162 1309.8 180.699L1308.75 179ZM1279.75 211L1277.98 210.07C1270.8 223.739 1267.41 239.246 1267.75 256.539L1269.75 256.5L1271.75 256.461C1271.42 239.754 1274.69 224.928 1281.52 211.93L1279.75 211ZM1269.75 256.5L1267.75 256.461C1267.41 273.755 1270.8 289.421 1277.97 303.412L1279.75 302.5L1281.53 301.588C1274.69 288.246 1271.42 273.245 1271.75 256.539L1269.75 256.5ZM1279.75 302.5L1277.98 303.43C1285.13 317.059 1295.03 327.986 1307.66 336.178L1308.75 334.5L1309.83 332.822C1297.8 325.014 1288.36 314.608 1281.52 301.57L1279.75 302.5ZM1308.75 334.5L1307.71 336.211C1320.71 344.078 1335.24 348 1351.25 348V346V344C1335.92 344 1322.12 340.255 1309.78 332.789L1308.75 334.5ZM1619.54 388L1617.7 388.779L1618.21 390H1619.54V388ZM1508.54 125.5V123.5H1505.52L1506.7 126.279L1508.54 125.5ZM1564.04 125.5L1565.89 124.746L1565.38 123.5H1564.04V125.5ZM1644.04 322L1644.9 323.807L1646.6 322.998L1645.89 321.246L1644.04 322ZM1634.54 326.5L1632.7 325.717L1630.64 330.561L1635.4 328.307L1634.54 326.5ZM1720.04 125.5V123.5H1718.72L1718.2 124.717L1720.04 125.5ZM1773.04 125.5L1774.87 126.311L1776.11 123.5H1773.04V125.5ZM1656.54 388V390H1657.84L1658.37 388.811L1656.54 388ZM1619.54 388L1621.38 387.221L1510.38 124.721L1508.54 125.5L1506.7 126.279L1617.7 388.779L1619.54 388ZM1508.54 125.5V127.5H1564.04V125.5V123.5H1508.54V125.5ZM1564.04 125.5L1562.19 126.254L1642.19 322.754L1644.04 322L1645.89 321.246L1565.89 124.746L1564.04 125.5ZM1644.04 322L1643.18 320.193L1633.68 324.693L1634.54 326.5L1635.4 328.307L1644.9 323.807L1644.04 322ZM1634.54 326.5L1636.38 327.283L1721.88 126.283L1720.04 125.5L1718.2 124.717L1632.7 325.717L1634.54 326.5ZM1720.04 125.5V127.5H1773.04V125.5V123.5H1720.04V125.5ZM1773.04 125.5L1771.21 124.689L1654.71 387.189L1656.54 388L1658.37 388.811L1774.87 126.311L1773.04 125.5ZM1656.54 388V386H1619.54V388V390H1656.54V388ZM1828.66 388H1826.66V390H1828.66V388ZM1828.66 125.5V123.5H1826.66V125.5H1828.66ZM1880.16 125.5H1882.16V123.5H1880.16V125.5ZM1880.16 388V390H1882.16V388H1880.16ZM1828.16 59L1829.53 57.5459V57.5459L1828.16 59ZM1828.16 11.5L1826.78 10.0481L1826.77 10.0667L1826.75 10.0858L1828.16 11.5ZM1879.16 11L1877.79 12.454V12.454L1879.16 11ZM1878.66 58.5L1877.28 57.0481L1877.27 57.0667L1877.25 57.0858L1878.66 58.5ZM1828.66 388H1830.66V125.5H1828.66H1826.66V388H1828.66ZM1828.66 125.5V127.5H1880.16V125.5V123.5H1828.66V125.5ZM1880.16 125.5H1878.16V388H1880.16H1882.16V125.5H1880.16ZM1880.16 388V386H1828.66V388V390H1880.16V388ZM1853.66 67.5V65.5C1843 65.5 1835.05 62.7583 1829.53 57.5459L1828.16 59L1826.79 60.454C1833.27 66.5749 1842.32 69.5 1853.66 69.5V67.5ZM1828.16 59L1829.53 57.5459C1824.03 52.3478 1821.16 44.9308 1821.16 35H1819.16H1817.16C1817.16 45.7358 1820.29 54.3188 1826.79 60.454L1828.16 59ZM1819.16 35H1821.16C1821.16 25.7834 1824 18.4859 1829.57 12.9142L1828.16 11.5L1826.75 10.0858C1820.32 16.5141 1817.16 24.8832 1817.16 35H1819.16ZM1828.16 11.5L1829.54 12.9519C1835.42 7.37863 1843.39 4.49999 1853.66 4.49999V2.49999V0.499986C1842.6 0.499986 1833.57 3.62134 1826.78 10.0481L1828.16 11.5ZM1853.66 2.49999V4.49999C1864.32 4.49999 1872.27 7.24162 1877.79 12.454L1879.16 11L1880.53 9.54597C1874.05 3.42502 1865 0.499986 1853.66 0.499986V2.49999ZM1879.16 11L1877.79 12.454C1883.29 17.6521 1886.16 25.0691 1886.16 35H1888.16H1890.16C1890.16 24.2642 1887.03 15.6812 1880.53 9.54597L1879.16 11ZM1888.16 35H1886.16C1886.16 44.1831 1883.17 51.4686 1877.28 57.0481L1878.66 58.5L1880.04 59.9519C1886.81 53.5313 1890.16 45.1502 1890.16 35H1888.16ZM1878.66 58.5L1877.25 57.0858C1871.71 62.62 1863.94 65.5 1853.66 65.5V67.5V69.5C1864.71 69.5 1873.61 66.38 1880.07 59.9142L1878.66 58.5ZM2000.82 375L1999.7 376.654L1999.7 376.659L1999.71 376.664L2000.82 375ZM1958.32 326L1956.54 326.917L1958.32 326ZM1958.32 186L1956.55 185.06L1956.55 185.071L1958.32 186ZM2002.32 137.5L2001.26 135.804L2001.25 135.808L2001.25 135.813L2002.32 137.5ZM2102.32 126L2102.99 124.114V124.114L2102.32 126ZM2131.82 143L2130.5 144.501L2130.53 144.529L2130.56 144.556L2131.82 143ZM2152.82 167.5L2151.08 168.492L2151.1 168.515L2151.11 168.538L2152.82 167.5ZM2163.32 197.5L2162.66 199.389L2165.7 200.447L2165.3 197.252L2163.32 197.5ZM2151.82 193.5H2149.82V194.922L2151.16 195.389L2151.82 193.5ZM2151.82 125.5V123.5H2149.82V125.5H2151.82ZM2203.82 125.5H2205.82V123.5H2203.82V125.5ZM2203.82 388V390H2205.82V388H2203.82ZM2151.82 388H2149.82V390H2151.82V388ZM2151.82 325.5L2151.26 323.58L2149.82 324V325.5H2151.82ZM2163.82 322L2165.77 322.434L2166.51 319.133L2163.26 320.08L2163.82 322ZM2151.32 348.5L2149.71 347.32L2149.7 347.331L2151.32 348.5ZM2127.82 371L2126.68 369.354L2126.67 369.363L2126.66 369.373L2127.82 371ZM2096.32 387L2095.67 385.108L2095.66 385.111L2095.65 385.114L2096.32 387ZM2115.32 334L2114.24 332.315L2115.32 334ZM2143.32 302.5L2141.54 301.588L2141.54 301.597L2141.53 301.606L2143.32 302.5ZM2143.32 210.5L2141.53 211.394L2141.54 211.412L2141.55 211.43L2143.32 210.5ZM2115.32 179L2114.24 180.685L2115.32 179ZM2032.82 179L2031.74 177.315L2031.73 177.322L2031.72 177.329L2032.82 179ZM2004.82 210.5L2003.05 209.57L2003.04 209.588L2003.03 209.606L2004.82 210.5ZM2004.82 302.5L2003.02 303.377L2003.04 303.403L2003.05 303.43L2004.82 302.5ZM2032.82 334L2031.72 335.671L2031.73 335.678L2031.74 335.685L2032.82 334ZM2060.32 393V391C2039.05 391 2019.6 385.117 2001.93 373.336L2000.82 375L1999.71 376.664C2018.04 388.883 2038.26 395 2060.32 395V393ZM2000.82 375L2001.94 373.346C1984.58 361.549 1970.63 345.48 1960.1 325.083L1958.32 326L1956.54 326.917C1967.35 347.853 1981.73 364.451 1999.7 376.654L2000.82 375ZM1958.32 326L1960.1 325.083C1949.59 304.732 1944.32 281.719 1944.32 256H1942.32H1940.32C1940.32 282.281 1945.71 305.935 1956.54 326.917L1958.32 326ZM1942.32 256H1944.32C1944.32 229.942 1949.6 206.936 1960.09 186.929L1958.32 186L1956.55 185.071C1945.71 205.73 1940.32 229.391 1940.32 256H1942.32ZM1958.32 186L1960.09 186.94C1970.94 166.553 1985.37 150.654 2003.39 139.187L2002.32 137.5L2001.25 135.813C1982.6 147.679 1967.7 164.113 1956.55 185.06L1958.32 186ZM2002.32 137.5L2003.38 139.196C2021.71 127.737 2042.18 122 2064.82 122V120V118C2041.46 118 2020.26 123.93 2001.26 135.804L2002.32 137.5ZM2064.82 120V122C2078.29 122 2090.56 123.971 2101.65 127.886L2102.32 126L2102.99 124.114C2091.41 120.029 2078.68 118 2064.82 118V120ZM2102.32 126L2101.65 127.886C2112.77 131.808 2122.37 137.351 2130.5 144.501L2131.82 143L2133.14 141.499C2124.6 133.983 2114.54 128.192 2102.99 124.114L2102.32 126ZM2131.82 143L2130.56 144.556C2139.04 151.405 2145.88 159.383 2151.08 168.492L2152.82 167.5L2154.56 166.508C2149.1 156.95 2141.93 148.595 2133.08 141.444L2131.82 143ZM2152.82 167.5L2151.11 168.538C2156.63 177.634 2160.04 187.366 2161.34 197.748L2163.32 197.5L2165.3 197.252C2163.94 186.301 2160.34 176.032 2154.53 166.462L2152.82 167.5ZM2163.32 197.5L2163.98 195.611L2152.48 191.611L2151.82 193.5L2151.16 195.389L2162.66 199.389L2163.32 197.5ZM2151.82 193.5H2153.82V125.5H2151.82H2149.82V193.5H2151.82ZM2151.82 125.5V127.5H2203.82V125.5V123.5H2151.82V125.5ZM2203.82 125.5H2201.82V388H2203.82H2205.82V125.5H2203.82ZM2203.82 388V386H2151.82V388V390H2203.82V388ZM2151.82 388H2153.82V325.5H2151.82H2149.82V388H2151.82ZM2151.82 325.5L2152.38 327.42L2164.38 323.92L2163.82 322L2163.26 320.08L2151.26 323.58L2151.82 325.5ZM2163.82 322L2161.87 321.566C2159.94 330.256 2155.9 338.84 2149.71 347.32L2151.32 348.5L2152.94 349.68C2159.4 340.827 2163.7 331.744 2165.77 322.434L2163.82 322ZM2151.32 348.5L2149.7 347.331C2143.85 355.454 2136.19 362.799 2126.68 369.354L2127.82 371L2128.96 372.646C2138.78 365.868 2146.79 358.213 2152.94 349.669L2151.32 348.5ZM2127.82 371L2126.66 369.373C2117.49 375.918 2107.17 381.166 2095.67 385.108L2096.32 387L2096.97 388.892C2108.81 384.834 2119.48 379.415 2128.98 372.627L2127.82 371ZM2096.32 387L2095.65 385.114C2084.55 389.035 2072.77 391 2060.32 391V393V395C2073.2 395 2085.43 392.965 2096.99 388.886L2096.32 387ZM2073.82 345.5V347.5C2089.83 347.5 2104.04 343.578 2116.4 335.685L2115.32 334L2114.24 332.315C2102.6 339.755 2089.15 343.5 2073.82 343.5V345.5ZM2115.32 334L2116.4 335.685C2128.72 327.815 2138.29 317.035 2145.11 303.394L2143.32 302.5L2141.53 301.606C2135.02 314.632 2125.92 324.852 2114.24 332.315L2115.32 334ZM2143.32 302.5L2145.1 303.412C2152.26 289.428 2155.82 273.609 2155.82 256H2153.82H2151.82C2151.82 273.058 2148.38 288.238 2141.54 301.588L2143.32 302.5ZM2153.82 256H2155.82C2155.82 238.718 2152.26 223.226 2145.09 209.57L2143.32 210.5L2141.55 211.43C2148.38 224.441 2151.82 239.282 2151.82 256H2153.82ZM2143.32 210.5L2145.11 209.606C2138.29 195.965 2128.72 185.185 2116.4 177.315L2115.32 179L2114.24 180.685C2125.92 188.148 2135.02 198.368 2141.53 211.394L2143.32 210.5ZM2115.32 179L2116.4 177.315C2104.04 169.422 2089.83 165.5 2073.82 165.5V167.5V169.5C2089.15 169.5 2102.6 173.245 2114.24 180.685L2115.32 179ZM2073.82 167.5V165.5C2058.14 165.5 2044.09 169.427 2031.74 177.315L2032.82 179L2033.9 180.685C2045.55 173.24 2058.84 169.5 2073.82 169.5V167.5ZM2032.82 179L2031.72 177.329C2019.75 185.196 2010.19 195.961 2003.05 209.57L2004.82 210.5L2006.59 211.43C2013.45 198.372 2022.56 188.137 2033.92 180.671L2032.82 179ZM2004.82 210.5L2003.03 209.606C1996.21 223.253 1992.82 238.733 1992.82 256H1994.82H1996.82C1996.82 239.267 2000.1 224.413 2006.61 211.394L2004.82 210.5ZM1994.82 256H1992.82C1992.82 273.595 1996.21 289.401 2003.02 303.377L2004.82 302.5L2006.62 301.623C2000.1 288.266 1996.82 273.072 1996.82 256H1994.82ZM2004.82 302.5L2003.05 303.43C2010.19 317.039 2019.75 327.804 2031.72 335.671L2032.82 334L2033.92 332.329C2022.56 324.863 2013.45 314.628 2006.59 301.57L2004.82 302.5ZM2032.82 334L2031.74 335.685C2044.09 343.573 2058.14 347.5 2073.82 347.5V345.5V343.5C2058.84 343.5 2045.55 339.76 2033.9 332.315L2032.82 334Z" fill="#D3D3D3" mask="url(#path-2-outside-1_2_14)"/>
</svg>
