<svg width="253" height="45" viewBox="0 0 253 45" fill="none" xmlns="http://www.w3.org/2000/svg">
<path d="M29.3956 4.36862C29.6436 4.34088 29.8945 4.36346 30.1335 4.43503C30.3725 4.50661 30.5948 4.62574 30.7871 4.78527C30.9793 4.9448 31.1379 5.14154 31.2529 5.36375C31.3679 5.58594 31.4374 5.82908 31.457 6.07872L31.4571 6.0806L31.4573 6.08237L33.3128 22.8173L33.324 22.9179H35.4989C39.1619 22.918 42.3081 25.7215 41.975 29.3395L41.9664 29.4252C41.4315 34.3683 39.8013 37.9788 38.3065 40.3522C37.5589 41.5391 36.8452 42.4167 36.3191 42.9971C36.0561 43.2873 35.8401 43.5031 35.6902 43.646C35.6152 43.7174 35.5567 43.7706 35.5173 43.8059C35.5062 43.8157 35.4965 43.824 35.4885 43.831H13.3859C13.4052 43.8048 13.4265 43.7758 13.4495 43.7441C13.5777 43.5669 13.7619 43.305 13.9866 42.9647C14.4358 42.284 15.0471 41.2897 15.6966 40.0332C17.1409 37.2527 18.1879 34.2824 18.8071 31.2098L18.8656 30.9122L18.8657 30.9115C19.6517 26.6879 22.9252 22.9179 27.169 22.9179H29.577L29.563 22.7921L27.7602 6.49603L27.76 6.49415L27.7598 6.49238L27.7537 6.44578C27.7261 6.2129 27.7425 5.97678 27.8021 5.74974C27.8656 5.50755 27.9769 5.28059 28.1295 5.08247C28.2821 4.88436 28.4728 4.71906 28.6904 4.59643C28.9078 4.47378 29.1477 4.39634 29.3956 4.36862ZM27.1664 26.655C25.3463 26.655 23.1755 28.4169 22.5543 31.4511L22.5258 31.5966C21.9278 34.8227 20.9126 37.652 19.8812 39.9339L19.8087 40.0941H25.9241L25.9511 40.0777C28.8167 38.3303 30.7262 36.0619 31.6673 32.8272H33.4431C33.4179 35.4666 32.5153 38.0933 31.1324 39.9119L30.9938 40.0941H33.9044L33.9384 40.0529C34.3823 39.5145 34.7904 38.9472 35.1602 38.3551L35.1601 38.355C36.3919 36.4 37.8015 33.3265 38.2642 29.0214L38.2641 29.0213C38.2965 28.7363 38.2598 28.4477 38.1571 28.1801C38.0544 27.9127 37.8889 27.6741 37.6746 27.4847C37.1819 27.0082 36.4022 26.655 35.5015 26.655H27.1664ZM4.60581 29.5242H11.1855C11.6791 29.5242 12.1525 29.721 12.5014 30.0714C12.8505 30.4218 13.0465 30.8971 13.0465 31.3927C13.0465 31.8882 12.8505 32.3635 12.5014 32.7139C12.1525 33.0643 11.6791 33.2611 11.1855 33.2611H4.60581C4.11223 33.2611 3.63886 33.0643 3.28986 32.7139C2.94086 32.3635 2.74478 31.8882 2.74478 31.3927C2.7448 30.8971 2.94086 30.4218 3.28986 30.0714C3.63886 29.721 4.11224 29.5242 4.60581 29.5242ZM1.97392 20.2755H16.4493C16.9429 20.2755 17.4162 20.4724 17.7652 20.8228C18.1143 21.1731 18.3103 21.6484 18.3104 22.144C18.3104 22.6395 18.1143 23.1148 17.7652 23.4653C17.4162 23.8157 16.9429 24.0125 16.4493 24.0125H1.97392C1.48034 24.0125 1.00698 23.8157 0.657972 23.4653C0.308975 23.1148 0.112896 22.6395 0.112896 22.144C0.112906 21.6484 0.308972 21.1731 0.657972 20.8228C0.996076 20.4833 1.45089 20.288 1.92772 20.2762L1.97392 20.2755ZM9.86959 11.0268H21.7131C22.2066 11.0268 22.68 11.2237 23.029 11.5741C23.3781 11.9245 23.574 12.3998 23.574 12.8954C23.574 13.3908 23.3781 13.8661 23.029 14.2166C22.68 14.567 22.2066 14.7639 21.7131 14.7639H9.86959C9.376 14.7639 8.90264 14.567 8.55364 14.2166C8.20464 13.8661 8.00856 13.3908 8.00856 12.8954C8.00857 12.3998 8.20464 11.9245 8.55364 11.5741C8.90264 11.2237 9.37601 11.0268 9.86959 11.0268Z" fill="#2F4F4F"/>
<path d="M36.0138 43.9799V4.30731H52.4967C55.018 4.30731 57.1442 4.68514 58.8753 5.44081C60.6063 6.19648 61.9046 7.32998 62.7702 8.84131C63.6734 10.3149 64.1249 12.1285 64.1249 14.2821C64.1249 16.4358 63.5229 18.2683 62.3186 19.7796C61.1521 21.2909 59.5151 22.33 57.4076 22.8967V21.7632C59.1764 22.141 60.7192 22.8211 62.0364 23.8035C63.3535 24.7481 64.3696 25.9383 65.0846 27.3741C65.8372 28.8099 66.2135 30.4534 66.2135 32.3048C66.2135 34.194 65.9124 35.8753 65.3104 37.3489C64.7459 38.7847 63.8803 39.9937 62.7137 40.9761C61.5848 41.9585 60.2112 42.7141 58.593 43.2431C56.9749 43.7342 55.1309 43.9799 53.0611 43.9799H36.0138ZM42.1102 38.0856H52.7224C54.2654 38.0856 55.5637 37.8589 56.6174 37.4055C57.7087 36.9521 58.5366 36.291 59.1011 35.4219C59.7031 34.5151 60.0042 33.4383 60.0042 32.1914C60.0042 31.0202 59.6844 30.0189 59.0446 29.1877C58.4425 28.3565 57.577 27.733 56.448 27.3174C55.3191 26.864 53.9832 26.6373 52.4402 26.6373H42.1102V38.0856ZM42.1102 20.7431H52.158C53.2869 20.7431 54.2841 20.5164 55.1497 20.063C56.0529 19.6096 56.7491 18.9861 57.2383 18.1927C57.7652 17.3992 58.0286 16.4924 58.0286 15.4723C58.0286 13.772 57.4641 12.4685 56.3351 11.5617C55.2062 10.6549 53.588 10.2015 51.4806 10.2015H42.1102V20.7431ZM72.9683 43.9799V14.2254H78.8389V23.5768L78.2744 21.3098C78.6884 19.874 79.3845 18.5705 80.363 17.3992C81.3791 16.228 82.5269 15.3023 83.8063 14.6222C85.1235 13.9421 86.4782 13.602 87.8706 13.602C88.5104 13.602 89.1124 13.6587 89.6769 13.772C90.279 13.8854 90.7494 14.0177 91.0881 14.1688L89.564 20.5164C89.1124 20.3274 88.6044 20.1763 88.0399 20.063C87.513 19.9119 86.9863 19.8363 86.4594 19.8363C85.4433 19.8363 84.4649 20.044 83.5241 20.4597C82.6209 20.8375 81.8118 21.3854 81.0968 22.1033C80.4194 22.7834 79.8738 23.5958 79.4598 24.5403C79.0458 25.4471 78.8389 26.4483 78.8389 27.5441V43.9799H72.9683ZM96.6945 43.9799V14.2254H102.509V43.9799H96.6945ZM99.5169 7.65113C98.2751 7.65113 97.3155 7.32997 96.6381 6.68766C95.9607 6.04534 95.622 5.13854 95.622 3.96726C95.622 2.87153 95.9607 1.98363 96.6381 1.30353C97.3532 0.623425 98.3128 0.283375 99.5169 0.283375C100.759 0.283375 101.718 0.604533 102.396 1.24685C103.073 1.88916 103.412 2.79596 103.412 3.96726C103.412 5.06297 103.054 5.95088 102.339 6.63098C101.662 7.31108 100.721 7.65113 99.5169 7.65113ZM111.558 43.9799V2.0403H117.372V43.9799H111.558ZM125.726 43.9799V2.0403H131.54V43.9799H125.726ZM152.551 44.5466C149.653 44.5466 147.056 43.8854 144.761 42.563C142.503 41.2028 140.715 39.3702 139.398 37.0655C138.081 34.7229 137.423 32.0592 137.423 29.0743C137.423 26.0895 138.081 23.4445 139.398 21.1398C140.715 18.7972 142.503 16.9648 144.761 15.6423C147.056 14.2821 149.653 13.602 152.551 13.602C155.41 13.602 157.97 14.2821 160.228 15.6423C162.523 16.9648 164.329 18.7972 165.647 21.1398C166.963 23.4445 167.622 26.0895 167.622 29.0743C167.622 32.0592 166.963 34.7229 165.647 37.0655C164.329 39.3702 162.523 41.2028 160.228 42.563C157.97 43.8854 155.41 44.5466 152.551 44.5466ZM152.551 39.2191C154.319 39.2191 155.899 38.7847 157.292 37.9156C158.684 37.0088 159.776 35.7997 160.566 34.2884C161.357 32.7393 161.733 31.0013 161.695 29.0743C161.733 27.1096 161.357 25.3715 160.566 23.8602C159.776 22.311 158.684 21.1021 157.292 20.233C155.899 19.3639 154.319 18.9295 152.551 18.9295C150.782 18.9295 149.182 19.3829 147.753 20.2897C146.36 21.1587 145.269 22.3677 144.479 23.9169C143.688 25.4282 143.311 27.1474 143.35 29.0743C143.311 31.0013 143.688 32.7393 144.479 34.2884C145.269 35.7997 146.36 37.0088 147.753 37.9156C149.182 38.7847 150.782 39.2191 152.551 39.2191ZM182.84 43.9799L170.308 14.2254H176.574L185.606 36.4987L184.533 37.0088L194.186 14.2254H200.169L187.017 43.9799H182.84ZM206.448 43.9799V14.2254H212.263V43.9799H206.448ZM209.271 7.65113C208.029 7.65113 207.069 7.32997 206.392 6.68766C205.715 6.04534 205.376 5.13854 205.376 3.96726C205.376 2.87153 205.715 1.98363 206.392 1.30353C207.107 0.623425 208.066 0.283375 209.271 0.283375C210.513 0.283375 211.472 0.604533 212.15 1.24685C212.827 1.88916 213.166 2.79596 213.166 3.96726C213.166 5.06297 212.808 5.95088 212.093 6.63098C211.416 7.31108 210.475 7.65113 209.271 7.65113ZM232.602 44.5466C230.155 44.5466 227.917 43.8665 225.885 42.5063C223.89 41.1461 222.291 39.2948 221.087 36.9521C219.882 34.6095 219.28 31.9647 219.28 29.0176C219.28 26.0328 219.882 23.3879 221.087 21.0831C222.328 18.7405 223.985 16.9081 226.054 15.5856C228.162 14.2632 230.513 13.602 233.11 13.602C234.653 13.602 236.064 13.8287 237.344 14.2821C238.623 14.7355 239.734 15.3779 240.674 16.2091C241.653 17.0025 242.443 17.9283 243.045 18.9861C243.685 20.044 244.08 21.1775 244.23 22.3867L242.932 21.9333V14.2254H248.803V43.9799H242.932V36.8955L244.287 36.4987C244.061 37.5189 243.59 38.5201 242.875 39.5025C242.198 40.4471 241.314 41.2972 240.222 42.0529C239.169 42.8086 237.984 43.4131 236.666 43.8665C235.387 44.3199 234.032 44.5466 232.602 44.5466ZM234.126 39.1625C235.895 39.1625 237.456 38.728 238.811 37.8589C240.166 36.9899 241.219 35.7997 241.972 34.2884C242.763 32.7393 243.158 30.9823 243.158 29.0176C243.158 27.0907 242.763 25.3715 241.972 23.8602C241.219 22.3489 240.166 21.1587 238.811 20.2897C237.456 19.4206 235.895 18.9861 234.126 18.9861C232.395 18.9861 230.852 19.4206 229.497 20.2897C228.18 21.1587 227.126 22.3489 226.336 23.8602C225.583 25.3715 225.207 27.0907 225.207 29.0176C225.207 30.9823 225.583 32.7393 226.336 34.2884C227.126 35.7997 228.18 36.9899 229.497 37.8589C230.852 38.728 232.395 39.1625 234.126 39.1625Z" fill="#2F4F4F"/>
<mask id="mask0_2_20" style="mask-type:luminance" maskUnits="userSpaceOnUse" x="35" y="0" width="215" height="45">
<path d="M249.049 0H35.788V44.7733H249.049V0Z" fill="white"/>
<path d="M36.0138 43.9799V4.30731H52.4967C55.018 4.30731 57.1442 4.68514 58.8753 5.44081C60.6063 6.19648 61.9046 7.32998 62.7702 8.84131C63.6734 10.3149 64.1249 12.1285 64.1249 14.2821C64.1249 16.4358 63.5229 18.2683 62.3186 19.7796C61.1521 21.2909 59.5151 22.33 57.4076 22.8967V21.7632C59.1764 22.141 60.7192 22.8211 62.0364 23.8035C63.3535 24.7481 64.3696 25.9383 65.0846 27.3741C65.8372 28.8099 66.2135 30.4534 66.2135 32.3048C66.2135 34.194 65.9124 35.8753 65.3104 37.3489C64.7459 38.7847 63.8803 39.9937 62.7137 40.9761C61.5848 41.9585 60.2112 42.7141 58.593 43.2431C56.9749 43.7342 55.1309 43.9799 53.0611 43.9799H36.0138ZM42.1102 38.0856H52.7224C54.2654 38.0856 55.5637 37.8589 56.6174 37.4055C57.7087 36.9521 58.5366 36.291 59.1011 35.4219C59.7031 34.5151 60.0042 33.4383 60.0042 32.1914C60.0042 31.0202 59.6844 30.0189 59.0446 29.1877C58.4425 28.3565 57.577 27.733 56.448 27.3174C55.3191 26.864 53.9832 26.6373 52.4402 26.6373H42.1102V38.0856ZM42.1102 20.7431H52.158C53.2869 20.7431 54.2841 20.5164 55.1497 20.063C56.0529 19.6096 56.7491 18.9861 57.2383 18.1927C57.7652 17.3992 58.0286 16.4924 58.0286 15.4723C58.0286 13.772 57.4641 12.4685 56.3351 11.5617C55.2062 10.6549 53.588 10.2015 51.4806 10.2015H42.1102V20.7431ZM72.9683 43.9799V14.2254H78.8389V23.5768L78.2744 21.3098C78.6884 19.874 79.3845 18.5705 80.363 17.3992C81.3791 16.228 82.5269 15.3023 83.8063 14.6222C85.1235 13.9421 86.4782 13.602 87.8706 13.602C88.5104 13.602 89.1124 13.6587 89.6769 13.772C90.279 13.8854 90.7494 14.0177 91.0881 14.1688L89.564 20.5164C89.1124 20.3274 88.6044 20.1763 88.0399 20.063C87.513 19.9119 86.9863 19.8363 86.4594 19.8363C85.4433 19.8363 84.4649 20.044 83.5241 20.4597C82.6209 20.8375 81.8118 21.3854 81.0968 22.1033C80.4194 22.7834 79.8738 23.5958 79.4598 24.5403C79.0458 25.4471 78.8389 26.4483 78.8389 27.5441V43.9799H72.9683ZM96.6945 43.9799V14.2254H102.509V43.9799H96.6945ZM99.5169 7.65113C98.2751 7.65113 97.3155 7.32997 96.6381 6.68766C95.9607 6.04534 95.622 5.13854 95.622 3.96726C95.622 2.87153 95.9607 1.98363 96.6381 1.30353C97.3532 0.623425 98.3128 0.283375 99.5169 0.283375C100.759 0.283375 101.718 0.604533 102.396 1.24685C103.073 1.88916 103.412 2.79596 103.412 3.96726C103.412 5.06297 103.054 5.95088 102.339 6.63098C101.662 7.31108 100.721 7.65113 99.5169 7.65113ZM111.558 43.9799V2.0403H117.372V43.9799H111.558ZM125.726 43.9799V2.0403H131.54V43.9799H125.726ZM152.551 44.5466C149.653 44.5466 147.056 43.8854 144.761 42.563C142.503 41.2028 140.715 39.3702 139.398 37.0655C138.081 34.7229 137.423 32.0592 137.423 29.0743C137.423 26.0895 138.081 23.4445 139.398 21.1398C140.715 18.7972 142.503 16.9648 144.761 15.6423C147.056 14.2821 149.653 13.602 152.551 13.602C155.41 13.602 157.97 14.2821 160.228 15.6423C162.523 16.9648 164.329 18.7972 165.647 21.1398C166.963 23.4445 167.622 26.0895 167.622 29.0743C167.622 32.0592 166.963 34.7229 165.647 37.0655C164.329 39.3702 162.523 41.2028 160.228 42.563C157.97 43.8854 155.41 44.5466 152.551 44.5466ZM152.551 39.2191C154.319 39.2191 155.899 38.7847 157.292 37.9156C158.684 37.0088 159.776 35.7997 160.566 34.2884C161.357 32.7393 161.733 31.0013 161.695 29.0743C161.733 27.1096 161.357 25.3715 160.566 23.8602C159.776 22.311 158.684 21.1021 157.292 20.233C155.899 19.3639 154.319 18.9295 152.551 18.9295C150.782 18.9295 149.182 19.3829 147.753 20.2897C146.36 21.1587 145.269 22.3677 144.479 23.9169C143.688 25.4282 143.311 27.1474 143.35 29.0743C143.311 31.0013 143.688 32.7393 144.479 34.2884C145.269 35.7997 146.36 37.0088 147.753 37.9156C149.182 38.7847 150.782 39.2191 152.551 39.2191ZM182.84 43.9799L170.308 14.2254H176.574L185.606 36.4987L184.533 37.0088L194.186 14.2254H200.169L187.017 43.9799H182.84ZM206.448 43.9799V14.2254H212.263V43.9799H206.448ZM209.271 7.65113C208.029 7.65113 207.069 7.32997 206.392 6.68766C205.715 6.04534 205.376 5.13854 205.376 3.96726C205.376 2.87153 205.715 1.98363 206.392 1.30353C207.107 0.623425 208.066 0.283375 209.271 0.283375C210.513 0.283375 211.472 0.604533 212.15 1.24685C212.827 1.88916 213.166 2.79596 213.166 3.96726C213.166 5.06297 212.808 5.95088 212.093 6.63098C211.416 7.31108 210.475 7.65113 209.271 7.65113ZM232.602 44.5466C230.155 44.5466 227.917 43.8665 225.885 42.5063C223.89 41.1461 222.291 39.2948 221.087 36.9521C219.882 34.6095 219.28 31.9647 219.28 29.0176C219.28 26.0328 219.882 23.3879 221.087 21.0831C222.328 18.7405 223.985 16.9081 226.054 15.5856C228.162 14.2632 230.513 13.602 233.11 13.602C234.653 13.602 236.064 13.8287 237.344 14.2821C238.623 14.7355 239.734 15.3779 240.674 16.2091C241.653 17.0025 242.443 17.9283 243.045 18.9861C243.685 20.044 244.08 21.1775 244.23 22.3867L242.932 21.9333V14.2254H248.803V43.9799H242.932V36.8955L244.287 36.4987C244.061 37.5189 243.59 38.5201 242.875 39.5025C242.198 40.4471 241.314 41.2972 240.222 42.0529C239.169 42.8086 237.984 43.4131 236.666 43.8665C235.387 44.3199 234.032 44.5466 232.602 44.5466ZM234.126 39.1625C235.895 39.1625 237.456 38.728 238.811 37.8589C240.166 36.9899 241.219 35.7997 241.972 34.2884C242.763 32.7393 243.158 30.9823 243.158 29.0176C243.158 27.0907 242.763 25.3715 241.972 23.8602C241.219 22.3489 240.166 21.1587 238.811 20.2897C237.456 19.4206 235.895 18.9861 234.126 18.9861C232.395 18.9861 230.852 19.4206 229.497 20.2897C228.18 21.1587 227.126 22.3489 226.336 23.8602C225.583 25.3715 225.207 27.0907 225.207 29.0176C225.207 30.9823 225.583 32.7393 226.336 34.2884C227.126 35.7997 228.18 36.9899 229.497 37.8589C230.852 38.728 232.395 39.1625 234.126 39.1625Z" fill="black"/>
</mask>
<g mask="url(#mask0_2_20)">
<path d="M36.0138 43.9798H35.788V44.2065H36.0138V43.9798ZM36.0138 4.30731V4.08061H35.788V4.30731H36.0138ZM62.7702 8.84131L62.5744 8.95431L62.5761 8.95724L62.5779 8.96012L62.7702 8.84131ZM62.3186 19.7796L62.1423 19.638L62.1413 19.6394L62.1401 19.6407L62.3186 19.7796ZM57.4076 22.8967H57.1818V23.1921L57.466 23.1157L57.4076 22.8967ZM57.4076 21.7632L57.4546 21.5415L57.1818 21.4832V21.7632H57.4076ZM62.0364 23.8035L61.9017 23.9855L61.9034 23.9868L61.9052 23.9879L62.0364 23.8035ZM65.0846 27.3741L64.8826 27.4754L64.8836 27.4775L64.8847 27.4796L65.0846 27.3741ZM65.3104 37.3489L65.1015 37.2628L65.1009 37.2642L65.1004 37.2657L65.3104 37.3489ZM62.7137 40.9761L62.5687 40.8024L62.5672 40.8035L62.5659 40.8048L62.7137 40.9761ZM58.593 43.2431L58.6584 43.46L58.6607 43.4593L58.6629 43.4587L58.593 43.2431ZM42.1102 38.0856H41.8844V38.3123H42.1102V38.0856ZM56.6174 37.4055L56.531 37.1961L56.5298 37.1966L56.5284 37.1972L56.6174 37.4055ZM59.1011 35.4219L58.9132 35.2962L58.9125 35.2971L58.912 35.298L59.1011 35.4219ZM59.0446 29.1877L58.8621 29.321L58.864 29.3237L58.8659 29.3263L59.0446 29.1877ZM56.448 27.3174L56.3641 27.5279L56.3672 27.5291L56.3702 27.5303L56.448 27.3174ZM42.1102 26.6373V26.4106H41.8844V26.6373H42.1102ZM42.1102 20.7431H41.8844V20.9698H42.1102V20.7431ZM55.1497 20.063L55.0488 19.8602L55.047 19.8611L55.0453 19.862L55.1497 20.063ZM57.2383 18.1927L57.0504 18.067L57.0483 18.0702L57.0463 18.0733L57.2383 18.1927ZM42.1102 10.2015V9.97481H41.8844V10.2015H42.1102ZM36.0138 43.9798H36.2396V4.30731H36.0138H35.788V43.9798H36.0138ZM36.0138 4.30731V4.53401H52.4967V4.30731V4.08061H36.0138V4.30731ZM52.4967 4.30731V4.53401C54.9968 4.53401 57.0904 4.90885 58.7853 5.6487L58.8753 5.44081L58.9653 5.23291C57.198 4.46143 55.0391 4.08061 52.4967 4.08061V4.30731ZM58.8753 5.44081L58.7853 5.6487C60.4759 6.38675 61.7353 7.48892 62.5744 8.95431L62.7702 8.84131L62.966 8.72831C62.0741 7.17103 60.7367 6.0062 58.9653 5.23291L58.8753 5.44081ZM62.7702 8.84131L62.5779 8.96012C63.4543 10.3901 63.8992 12.1602 63.8992 14.2821H64.1249H64.3507C64.3507 12.0967 63.8924 10.2396 62.9625 8.7225L62.7702 8.84131ZM64.1249 14.2821H63.8992C63.8992 16.3904 63.3109 18.1714 62.1423 19.638L62.3186 19.7796L62.495 19.9212C63.7348 18.3651 64.3507 16.4811 64.3507 14.2821H64.1249ZM62.3186 19.7796L62.1401 19.6407C61.0081 21.1074 59.4162 22.1219 57.3493 22.6777L57.4076 22.8967L57.466 23.1157C59.6138 22.5381 61.296 21.4745 62.4971 19.9185L62.3186 19.7796ZM57.4076 22.8967H57.6334V21.7632H57.4076H57.1818V22.8967H57.4076ZM57.4076 21.7632L57.3607 21.9849C59.1008 22.3567 60.6132 23.0245 61.9017 23.9855L62.0364 23.8035L62.1711 23.6216C60.8253 22.6179 59.2518 21.9254 57.4546 21.5415L57.4076 21.7632ZM62.0364 23.8035L61.9052 23.9879C63.1926 24.9114 64.1843 26.0731 64.8826 27.4754L65.0846 27.3741L65.2865 27.2727C64.5549 25.8034 63.5143 24.5848 62.1676 23.6191L62.0364 23.8035ZM65.0846 27.3741L64.8847 27.4796C65.6181 28.8786 65.9877 30.4849 65.9877 32.3048H66.2135H66.4393C66.4393 30.4218 66.0564 28.7412 65.2844 27.2685L65.0846 27.3741ZM66.2135 32.3048H65.9877C65.9877 34.1698 65.6906 35.8211 65.1015 37.2628L65.3104 37.3489L65.5192 37.4349C66.1344 35.9295 66.4393 34.218 66.4393 32.3048H66.2135ZM65.3104 37.3489L65.1004 37.2657C64.5495 38.6667 63.7061 39.8445 62.5687 40.8024L62.7137 40.9761L62.8588 41.1497C64.0545 40.1429 64.9422 38.9027 65.5203 37.4321L65.3104 37.3489ZM62.7137 40.9761L62.5659 40.8048C61.4626 41.7648 60.1166 42.5066 58.5232 43.0275L58.593 43.2431L58.6629 43.4587C60.3058 42.9216 61.7069 42.1522 62.8616 41.1473L62.7137 40.9761ZM58.593 43.2431L58.5277 43.0261C56.9348 43.5096 55.1135 43.7531 53.0611 43.7531V43.9798V44.2065C55.1482 44.2065 57.0149 43.959 58.6584 43.46L58.593 43.2431ZM53.0611 43.9798V43.7531H36.0138V43.9798V44.2065H53.0611V43.9798ZM42.1102 38.0856V38.3123H52.7224V38.0856V37.8589H42.1102V38.0856ZM52.7224 38.0856V38.3123C54.2859 38.3123 55.6165 38.0828 56.7063 37.6139L56.6174 37.4055L56.5284 37.1972C55.5108 37.6351 54.2447 37.8589 52.7224 37.8589V38.0856ZM56.6174 37.4055L56.7037 37.615C57.8309 37.1468 58.6974 36.4584 59.2902 35.5458L59.1011 35.4219L58.912 35.298C58.3758 36.1236 57.5865 36.7575 56.531 37.1961L56.6174 37.4055ZM59.1011 35.4219L59.2889 35.5476C59.9192 34.5984 60.23 33.4764 60.23 32.1914H60.0042H59.7784C59.7784 33.4002 59.4872 34.4318 58.9132 35.2962L59.1011 35.4219ZM60.0042 32.1914H60.23C60.23 30.9761 59.8971 29.9245 59.2233 29.049L59.0446 29.1877L58.8659 29.3263C59.4716 30.1133 59.7784 31.0643 59.7784 32.1914H60.0042ZM59.0446 29.1877L59.2272 29.0544C58.5944 28.1808 57.6892 27.5329 56.5258 27.1045L56.448 27.3174L56.3702 27.5303C57.4648 27.9331 58.2906 28.5322 58.8621 29.321L59.0446 29.1877ZM56.448 27.3174L56.5319 27.1069C55.3701 26.6403 54.0044 26.4106 52.4402 26.4106V26.6373V26.864C53.9618 26.864 55.268 27.0876 56.3641 27.5279L56.448 27.3174ZM52.4402 26.6373V26.4106H42.1102V26.6373V26.864H52.4402V26.6373ZM42.1102 26.6373H41.8844V38.0856H42.1102H42.336V26.6373H42.1102ZM42.1102 20.7431V20.9698H52.158V20.7431V20.5164H42.1102V20.7431ZM52.158 20.7431V20.9698C53.3176 20.9698 54.3516 20.7367 55.2541 20.2639L55.1497 20.063L55.0453 19.862C54.2167 20.296 53.2562 20.5164 52.158 20.5164V20.7431ZM55.1497 20.063L55.2506 20.2658C56.1879 19.7952 56.9171 19.1443 57.4303 18.3121L57.2383 18.1927L57.0463 18.0733C56.581 18.828 55.9179 19.4239 55.0488 19.8602L55.1497 20.063ZM57.2383 18.1927L57.4261 18.3184C57.9794 17.4852 58.2544 16.5339 58.2544 15.4723H58.0286H57.8028C57.8028 16.451 57.5508 17.3133 57.0504 18.067L57.2383 18.1927ZM58.0286 15.4723H58.2544C58.2544 13.7164 57.6682 12.3421 56.4761 11.3847L56.3351 11.5617L56.1941 11.7388C57.26 12.5949 57.8028 13.8277 57.8028 15.4723H58.0286ZM56.3351 11.5617L56.4761 11.3847C55.2924 10.4339 53.6165 9.97481 51.4806 9.97481V10.2015V10.4282C53.5595 10.4282 55.1199 10.8759 56.1941 11.7388L56.3351 11.5617ZM51.4806 10.2015V9.97481H42.1102V10.2015V10.4282H51.4806V10.2015ZM42.1102 10.2015H41.8844V20.7431H42.1102H42.336V10.2015H42.1102ZM72.9683 43.9798H72.7425V44.2065H72.9683V43.9798ZM72.9683 14.2254V13.9987H72.7425V14.2254H72.9683ZM78.8389 14.2254H79.0647V13.9987H78.8389V14.2254ZM78.8389 23.5768L78.6199 23.6318L79.0647 23.5768H78.8389ZM78.2744 21.3098L78.0576 21.2468L78.0406 21.3055L78.0554 21.3648L78.2744 21.3098ZM80.363 17.3992L80.1928 17.2503L80.1914 17.2519L80.19 17.2536L80.363 17.3992ZM83.8063 14.6222L83.703 14.4205L83.7019 14.4212L83.7007 14.4218L83.8063 14.6222ZM89.6769 13.772L89.6327 13.9943L89.634 13.9945L89.6353 13.9949L89.6769 13.772ZM91.0881 14.1688L91.3076 14.2219L91.3517 14.0383L91.1798 13.9616L91.0881 14.1688ZM89.564 20.5164L89.4772 20.7256L89.7215 20.8279L89.7835 20.5695L89.564 20.5164ZM88.0399 20.063L87.978 20.2809L87.9866 20.2834L87.9957 20.2853L88.0399 20.063ZM83.5241 20.4597L83.6109 20.6689L83.6129 20.6681L83.6151 20.6672L83.5241 20.4597ZM79.4598 24.5403L79.6651 24.6347L79.6659 24.6331L79.6666 24.6315L79.4598 24.5403ZM78.8389 43.9798V44.2065H79.0647V43.9798H78.8389ZM72.9683 43.9798H73.1941V14.2254H72.9683H72.7425V43.9798H72.9683ZM72.9683 14.2254V14.4521H78.8389V14.2254V13.9987H72.9683V14.2254ZM78.8389 14.2254H78.6131V23.5768H78.8389H79.0647V14.2254H78.8389ZM78.8389 23.5768L79.0579 23.5219L78.4934 21.2548L78.2744 21.3098L78.0554 21.3648L78.6199 23.6318L78.8389 23.5768ZM78.2744 21.3098L78.4913 21.3728C78.8964 19.9681 79.5773 18.6926 80.536 17.5449L80.363 17.3992L80.19 17.2536C79.1918 18.4484 78.4805 19.7801 78.0576 21.2468L78.2744 21.3098ZM80.363 17.3992L80.5333 17.5482C81.5324 16.3964 82.6586 15.4887 83.912 14.8226L83.8063 14.6222L83.7007 14.4218C82.395 15.1158 81.2258 16.0596 80.1928 17.2503L80.363 17.3992ZM83.8063 14.6222L83.9096 14.8238C85.1969 14.1591 86.5164 13.8287 87.8706 13.8287V13.602V13.3753C86.44 13.3753 85.05 13.725 83.703 14.4205L83.8063 14.6222ZM87.8706 13.602V13.8287C88.4971 13.8287 89.0842 13.8843 89.6327 13.9943L89.6769 13.772L89.7212 13.5498C89.1407 13.4331 88.5236 13.3753 87.8706 13.3753V13.602ZM89.6769 13.772L89.6353 13.9949C90.2298 14.1068 90.6808 14.2351 90.9965 14.376L91.0881 14.1688L91.1798 13.9616C90.8181 13.8002 90.3282 13.664 89.7186 13.5492L89.6769 13.772ZM91.0881 14.1688L90.8687 14.1156L89.3446 20.4632L89.564 20.5164L89.7835 20.5695L91.3076 14.2219L91.0881 14.1688ZM89.564 20.5164L89.6509 20.3071C89.1835 20.1116 88.6608 19.9564 88.0842 19.8407L88.0399 20.063L87.9957 20.2853C88.5481 20.3962 89.0414 20.5433 89.4772 20.7256L89.564 20.5164ZM88.0399 20.063L88.1019 19.845C87.5557 19.6883 87.0081 19.6096 86.4594 19.6096V19.8363V20.063C86.9645 20.063 87.4704 20.1354 87.978 20.2809L88.0399 20.063ZM86.4594 19.8363V19.6096C85.4116 19.6096 84.4023 19.824 83.4332 20.2522L83.5241 20.4597L83.6151 20.6672C84.5275 20.2641 85.475 20.063 86.4594 20.063V19.8363ZM83.5241 20.4597L83.4373 20.2505C82.506 20.64 81.6724 21.2049 80.9372 21.943L81.0968 22.1033L81.2565 22.2636C81.9513 21.5659 82.736 21.0351 83.6109 20.6689L83.5241 20.4597ZM81.0968 22.1033L80.9372 21.943C80.2386 22.6444 79.6776 23.4806 79.2531 24.4491L79.4598 24.5403L79.6666 24.6315C80.07 23.7108 80.6003 22.9223 81.2565 22.2636L81.0968 22.1033ZM79.4598 24.5403L79.2546 24.4459C78.8258 25.3851 78.6131 26.419 78.6131 27.5441H78.8389H79.0647C79.0647 26.4777 79.266 25.5091 79.6651 24.6347L79.4598 24.5403ZM78.8389 27.5441H78.6131V43.9798H78.8389H79.0647V27.5441H78.8389ZM78.8389 43.9798V43.7531H72.9683V43.9798V44.2065H78.8389V43.9798ZM96.6945 43.9798H96.4688V44.2065H96.6945V43.9798ZM96.6945 14.2254V13.9987H96.4688V14.2254H96.6945ZM102.509 14.2254H102.734V13.9987H102.509V14.2254ZM102.509 43.9798V44.2065H102.734V43.9798H102.509ZM96.6381 1.30353L96.4829 1.13895L96.4806 1.14106L96.4785 1.14323L96.6381 1.30353ZM102.339 6.63098L102.184 6.46641L102.182 6.46852L102.18 6.47068L102.339 6.63098ZM96.6945 43.9798H96.9203V14.2254H96.6945H96.4688V43.9798H96.6945ZM96.6945 14.2254V14.4521H102.509V14.2254V13.9987H96.6945V14.2254ZM102.509 14.2254H102.283V43.9798H102.509H102.734V14.2254H102.509ZM102.509 43.9798V43.7531H96.6945V43.9798V44.2065H102.509V43.9798ZM99.5169 7.65113V7.42443C98.3131 7.42443 97.4162 7.11366 96.7931 6.52284L96.6381 6.68766L96.4831 6.85247C97.2148 7.54627 98.2372 7.87783 99.5169 7.87783V7.65113ZM96.6381 6.68766L96.7931 6.52284C96.1718 5.93363 95.8478 5.09291 95.8478 3.96726H95.622H95.3962C95.3962 5.18416 95.7497 6.15704 96.4831 6.85247L96.6381 6.68766ZM95.622 3.96726H95.8478C95.8478 2.92255 96.1688 2.09538 96.7977 1.46383L96.6381 1.30353L96.4785 1.14323C95.7528 1.87188 95.3962 2.82052 95.3962 3.96726H95.622ZM96.6381 1.30353L96.7934 1.4681C97.4576 0.83637 98.3569 0.510076 99.5169 0.510076V0.283376V0.056675C98.2685 0.056675 97.2486 0.410481 96.4829 1.13895L96.6381 1.30353ZM99.5169 0.283376V0.510076C100.721 0.510076 101.618 0.82084 102.241 1.41166L102.396 1.24685L102.551 1.08204C101.819 0.388228 100.797 0.056675 99.5169 0.056675V0.283376ZM102.396 1.24685L102.241 1.41166C102.862 2.00087 103.186 2.84159 103.186 3.96726H103.412H103.638C103.638 2.75035 103.284 1.77747 102.551 1.08204L102.396 1.24685ZM103.412 3.96726H103.186C103.186 5.00816 102.849 5.83397 102.184 6.46641L102.339 6.63098L102.495 6.79556C103.26 6.06778 103.638 5.11778 103.638 3.96726H103.412ZM102.339 6.63098L102.18 6.47068C101.555 7.09799 100.678 7.42443 99.5169 7.42443V7.65113V7.87783C100.765 7.87783 101.769 7.52418 102.499 6.79128L102.339 6.63098ZM111.558 43.9798H111.333V44.2065H111.558V43.9798ZM111.558 2.0403V1.8136H111.333V2.0403H111.558ZM117.372 2.0403H117.598V1.8136H117.372V2.0403ZM117.372 43.9798V44.2065H117.598V43.9798H117.372ZM111.558 43.9798H111.784V2.0403H111.558H111.333V43.9798H111.558ZM111.558 2.0403V2.267H117.372V2.0403V1.8136H111.558V2.0403ZM117.372 2.0403H117.147V43.9798H117.372H117.598V2.0403H117.372ZM117.372 43.9798V43.7531H111.558V43.9798V44.2065H117.372V43.9798ZM125.726 43.9798H125.5V44.2065H125.726V43.9798ZM125.726 2.0403V1.8136H125.5V2.0403H125.726ZM131.54 2.0403H131.765V1.8136H131.54V2.0403ZM131.54 43.9798V44.2065H131.765V43.9798H131.54ZM125.726 43.9798H125.951V2.0403H125.726H125.5V43.9798H125.726ZM125.726 2.0403V2.267H131.54V2.0403V1.8136H125.726V2.0403ZM131.54 2.0403H131.314V43.9798H131.54H131.765V2.0403H131.54ZM131.54 43.9798V43.7531H125.726V43.9798V44.2065H131.54V43.9798ZM144.761 42.563L144.645 42.7574L144.646 42.7585L144.648 42.7596L144.761 42.563ZM139.398 37.0655L139.201 37.1769L139.202 37.1783L139.398 37.0655ZM139.398 21.1398L139.594 21.2526L139.595 21.2512L139.398 21.1398ZM144.761 15.6423L144.874 15.8382L144.875 15.8375L144.761 15.6423ZM160.228 15.6423L160.111 15.8367L160.113 15.8378L160.115 15.839L160.228 15.6423ZM165.647 21.1398L165.449 21.2512L165.45 21.2526L165.647 21.1398ZM165.647 37.0655L165.842 37.1783L165.843 37.1769L165.647 37.0655ZM160.228 42.563L160.341 42.7588L160.342 42.7582L160.228 42.563ZM157.292 37.9156L157.411 38.1082L157.413 38.1069L157.414 38.1058L157.292 37.9156ZM160.566 34.2884L160.766 34.3938V34.3928L160.767 34.3918L160.566 34.2884ZM161.695 29.0743L161.47 29.07V29.0743V29.0787L161.695 29.0743ZM160.566 23.8602L160.365 23.9636V23.9646L160.367 23.9656L160.566 23.8602ZM147.753 20.2897L147.871 20.4823L147.872 20.4818V20.4813L147.753 20.2897ZM144.479 23.9169L144.679 24.0223V24.0213L144.68 24.0203L144.479 23.9169ZM143.35 29.0743L143.576 29.0787V29.0743V29.0699L143.35 29.0743ZM144.479 34.2884L144.278 34.3918V34.3928L144.279 34.3938L144.479 34.2884ZM147.753 37.9156L147.63 38.1058L147.632 38.1077L147.635 38.1096L147.753 37.9156ZM152.551 44.5466V44.3199C149.688 44.3199 147.131 43.6672 144.873 42.3663L144.761 42.563L144.648 42.7596C146.982 44.1035 149.617 44.7733 152.551 44.7733V44.5466ZM144.761 42.563L144.877 42.3686C142.652 41.0284 140.892 39.224 139.594 36.9527L139.398 37.0655L139.202 37.1783C140.539 39.5165 142.353 41.3771 144.645 42.7574L144.761 42.563ZM139.398 37.0655L139.595 36.9541C138.299 34.6491 137.648 32.0245 137.648 29.0743H137.423H137.197C137.197 32.0938 137.863 34.7968 139.201 37.1769L139.398 37.0655ZM137.423 29.0743H137.648C137.648 26.124 138.299 23.519 139.594 21.2526L139.398 21.1398L139.202 21.027C137.863 23.3702 137.197 26.0548 137.197 29.0743H137.423ZM139.398 21.1398L139.595 21.2512C140.892 18.9427 142.652 17.1398 144.874 15.8382L144.761 15.6423L144.647 15.4464C142.353 16.7896 140.537 18.6516 139.201 21.0284L139.398 21.1398ZM144.761 15.6423L144.875 15.8375C147.133 14.4997 149.689 13.8287 152.551 13.8287V13.602V13.3753C149.615 13.3753 146.979 14.0645 144.646 15.4471L144.761 15.6423ZM152.551 13.602V13.8287C155.373 13.8287 157.891 14.4994 160.111 15.8367L160.228 15.6423L160.344 15.4479C158.048 14.0648 155.448 13.3753 152.551 13.3753V13.602ZM160.228 15.6423L160.115 15.839C162.375 17.1408 164.152 18.9436 165.449 21.2512L165.647 21.1398L165.843 21.0284C164.506 18.6507 162.671 16.7886 160.339 15.4457L160.228 15.6423ZM165.647 21.1398L165.45 21.2526C166.745 23.519 167.397 26.124 167.397 29.0743H167.622H167.848C167.848 26.0548 167.181 23.3702 165.842 21.027L165.647 21.1398ZM167.622 29.0743H167.397C167.397 32.0245 166.745 34.6491 165.449 36.9541L165.647 37.0655L165.843 37.1769C167.181 34.7968 167.848 32.0938 167.848 29.0743H167.622ZM165.647 37.0655L165.45 36.9527C164.153 39.2231 162.375 41.0273 160.113 42.3678L160.228 42.563L160.342 42.7582C162.671 41.3782 164.505 39.5174 165.842 37.1783L165.647 37.0655ZM160.228 42.563L160.114 42.3671C157.893 43.6675 155.374 44.3199 152.551 44.3199V44.5466V44.7733C155.447 44.7733 158.045 44.1033 160.341 42.7588L160.228 42.563ZM152.551 39.2191V39.4458C154.358 39.4458 155.981 39.0013 157.411 38.1082L157.292 37.9156L157.173 37.723C155.819 38.5681 154.28 38.9924 152.551 38.9924V39.2191ZM157.292 37.9156L157.414 38.1058C158.84 37.1773 159.958 35.9387 160.766 34.3938L160.566 34.2884L160.367 34.183C159.593 35.6609 158.529 36.8404 157.169 37.7254L157.292 37.9156ZM160.566 34.2884L160.767 34.3918C161.576 32.8059 161.958 31.0302 161.921 29.0699L161.695 29.0743L161.47 29.0787C161.506 30.9724 161.137 32.6727 160.365 34.185L160.566 34.2884ZM161.695 29.0743L161.921 29.0786C161.958 27.0816 161.577 25.3047 160.766 23.7548L160.566 23.8602L160.367 23.9656C161.137 25.4383 161.506 27.1376 161.47 29.07L161.695 29.0743ZM160.566 23.8602L160.767 23.7568C159.959 22.1733 158.84 20.9325 157.411 20.0404L157.292 20.233L157.173 20.4256C158.529 21.2715 159.592 22.4489 160.365 23.9636L160.566 23.8602ZM157.292 20.233L157.411 20.0404C155.981 19.1473 154.358 18.7028 152.551 18.7028V18.9295V19.1562C154.28 19.1562 155.819 19.5806 157.173 20.4256L157.292 20.233ZM152.551 18.9295V18.7028C150.741 18.7028 149.1 19.1673 147.632 20.098L147.753 20.2897L147.872 20.4813C149.265 19.5985 150.822 19.1562 152.551 19.1562V18.9295ZM147.753 20.2897L147.633 20.0971C146.204 20.9892 145.085 22.23 144.278 23.8135L144.479 23.9169L144.68 24.0203C145.452 22.5056 146.515 21.3282 147.871 20.4823L147.753 20.2897ZM144.479 23.9169L144.279 23.8115C143.468 25.3608 143.086 27.1186 143.124 29.0787L143.35 29.0743L143.576 29.0699C143.538 27.1761 143.907 25.4956 144.679 24.0223L144.479 23.9169ZM143.35 29.0743L143.124 29.0699C143.086 31.0302 143.468 32.8059 144.278 34.3918L144.479 34.2884L144.68 34.185C143.907 32.6727 143.538 30.9724 143.576 29.0787L143.35 29.0743ZM144.479 34.2884L144.279 34.3938C145.086 35.9387 146.204 37.1773 147.63 38.1058L147.753 37.9156L147.875 37.7254C146.516 36.8404 145.451 35.6609 144.679 34.183L144.479 34.2884ZM147.753 37.9156L147.635 38.1096C149.103 39.0013 150.743 39.4458 152.551 39.4458V39.2191V38.9924C150.82 38.9924 149.262 38.5679 147.869 37.7217L147.753 37.9156ZM182.84 43.9798L182.632 44.0681L182.689 44.2065H182.84V43.9798ZM170.308 14.2254V13.9987H169.967L170.1 14.3137L170.308 14.2254ZM176.574 14.2254L176.783 14.14L176.725 13.9987H176.574V14.2254ZM185.606 36.4987L185.703 36.7036L185.895 36.6119L185.814 36.4133L185.606 36.4987ZM184.533 37.0088L184.325 36.9201L184.093 37.4691L184.63 37.2136L184.533 37.0088ZM194.186 14.2254V13.9987H194.037L193.978 14.1367L194.186 14.2254ZM200.169 14.2254L200.376 14.3174L200.516 13.9987H200.169V14.2254ZM187.017 43.9798V44.2065H187.164L187.223 44.0718L187.017 43.9798ZM182.84 43.9798L183.047 43.8915L170.516 14.1371L170.308 14.2254L170.1 14.3137L182.632 44.0681L182.84 43.9798ZM170.308 14.2254V14.4521H176.574V14.2254V13.9987H170.308V14.2254ZM176.574 14.2254L176.365 14.3109L185.397 36.5842L185.606 36.4987L185.814 36.4133L176.783 14.14L176.574 14.2254ZM185.606 36.4987L185.509 36.2939L184.436 36.804L184.533 37.0088L184.63 37.2136L185.703 36.7036L185.606 36.4987ZM184.533 37.0088L184.741 37.0976L194.393 14.3142L194.186 14.2254L193.978 14.1367L184.325 36.9201L184.533 37.0088ZM194.186 14.2254V14.4521H200.169V14.2254V13.9987H194.186V14.2254ZM200.169 14.2254L199.963 14.1335L186.81 43.8879L187.017 43.9798L187.223 44.0718L200.376 14.3174L200.169 14.2254ZM187.017 43.9798V43.7531H182.84V43.9798V44.2065H187.017V43.9798ZM206.448 43.9798H206.223V44.2065H206.448V43.9798ZM206.448 14.2254V13.9987H206.223V14.2254H206.448ZM212.263 14.2254H212.488V13.9987H212.263V14.2254ZM212.263 43.9798V44.2065H212.488V43.9798H212.263ZM206.392 1.30353L206.236 1.13895L206.235 1.14106L206.233 1.14323L206.392 1.30353ZM212.093 6.63098L211.937 6.46641L211.936 6.46852L211.934 6.47068L212.093 6.63098ZM206.448 43.9798H206.674V14.2254H206.448H206.223V43.9798H206.448ZM206.448 14.2254V14.4521H212.263V14.2254V13.9987H206.448V14.2254ZM212.263 14.2254H212.037V43.9798H212.263H212.488V14.2254H212.263ZM212.263 43.9798V43.7531H206.448V43.9798V44.2065H212.263V43.9798ZM209.271 7.65113V7.42443C208.067 7.42443 207.17 7.11366 206.547 6.52284L206.392 6.68766L206.237 6.85247C206.969 7.54627 207.991 7.87783 209.271 7.87783V7.65113ZM206.392 6.68766L206.547 6.52284C205.926 5.93363 205.602 5.09291 205.602 3.96726H205.376H205.15C205.15 5.18416 205.504 6.15704 206.237 6.85247L206.392 6.68766ZM205.376 3.96726H205.602C205.602 2.92255 205.922 2.09538 206.551 1.46383L206.392 1.30353L206.233 1.14323C205.507 1.87188 205.15 2.82052 205.15 3.96726H205.376ZM206.392 1.30353L206.548 1.4681C207.212 0.83637 208.11 0.510076 209.271 0.510076V0.283376V0.056675C208.022 0.056675 207.003 0.410481 206.236 1.13895L206.392 1.30353ZM209.271 0.283376V0.510076C210.474 0.510076 211.372 0.82084 211.995 1.41166L212.15 1.24685L212.304 1.08204C211.573 0.388228 210.551 0.056675 209.271 0.056675V0.283376ZM212.15 1.24685L211.995 1.41166C212.616 2.00087 212.94 2.84159 212.94 3.96726H213.166H213.392C213.392 2.75035 213.038 1.77747 212.304 1.08204L212.15 1.24685ZM213.166 3.96726H212.94C212.94 5.00816 212.602 5.83397 211.937 6.46641L212.093 6.63098L212.249 6.79556C213.013 6.06778 213.392 5.11778 213.392 3.96726H213.166ZM212.093 6.63098L211.934 6.47068C211.309 7.09799 210.431 7.42443 209.271 7.42443V7.65113V7.87783C210.518 7.87783 211.523 7.52418 212.252 6.79128L212.093 6.63098ZM225.885 42.5063L225.758 42.6938V42.6943L225.759 42.6949L225.885 42.5063ZM221.087 21.0831L220.887 20.9766V20.9778L221.087 21.0831ZM226.054 15.5856L225.934 15.3934L225.933 15.3939V15.3944L226.054 15.5856ZM240.674 16.2091L240.525 16.3792L240.528 16.3824L240.532 16.3854L240.674 16.2091ZM243.045 18.9861L242.848 19.0986L242.851 19.1012L242.852 19.1038L243.045 18.9861ZM244.23 22.3867L244.156 22.6008L244.499 22.7207L244.454 22.3585L244.23 22.3867ZM242.932 21.9332H242.706V22.0944L242.857 22.1474L242.932 21.9332ZM242.932 14.2254V13.9987H242.706V14.2254H242.932ZM248.803 14.2254H249.028V13.9987H248.803V14.2254ZM248.803 43.9798V44.2065H249.028V43.9798H248.803ZM242.932 43.9798H242.706V44.2065H242.932V43.9798ZM242.932 36.8955L242.869 36.6778L242.706 36.7254V36.8955H242.932ZM244.287 36.4987L244.507 36.5479L244.59 36.1738L244.223 36.2811L244.287 36.4987ZM242.876 39.5025L242.694 39.3688L242.693 39.37L242.876 39.5025ZM240.222 42.0529L240.094 41.8663L240.093 41.8673L240.091 41.8685L240.222 42.0529ZM236.666 43.8665L236.593 43.652L236.592 43.6524L236.591 43.6527L236.666 43.8665ZM241.972 34.2884L241.771 34.185V34.1861L241.77 34.1871L241.972 34.2884ZM241.972 23.8602L241.77 23.9615L241.771 23.9636L241.773 23.9656L241.972 23.8602ZM229.497 20.2897L229.375 20.0987L229.374 20.0995L229.373 20.1003L229.497 20.2897ZM226.336 23.8602L226.136 23.7548L226.135 23.7568L226.134 23.7589L226.336 23.8602ZM226.336 34.2884L226.133 34.3878L226.135 34.3908L226.136 34.3938L226.336 34.2884ZM229.497 37.8589L229.373 38.0483L229.374 38.0491L229.375 38.0499L229.497 37.8589ZM232.602 44.5466V44.3199C230.201 44.3199 228.005 43.6531 226.01 42.3177L225.885 42.5063L225.759 42.6949C227.829 44.0799 230.111 44.7733 232.602 44.7733V44.5466ZM225.885 42.5063L226.011 42.3188C224.051 40.9816 222.476 39.1602 221.288 36.8482L221.087 36.9521L220.886 37.0561C222.106 39.4292 223.729 41.3106 225.758 42.6938L225.885 42.5063ZM221.087 36.9521L221.288 36.8482C220.101 34.5414 219.506 31.9329 219.506 29.0176H219.28H219.054C219.054 31.9966 219.663 34.6778 220.886 37.0561L221.087 36.9521ZM219.28 29.0176H219.506C219.506 26.064 220.102 23.4562 221.286 21.1884L221.087 21.0831L220.887 20.9778C219.663 23.3195 219.054 26.0015 219.054 29.0176H219.28ZM221.087 21.0831L221.286 21.1897C222.511 18.8788 224.14 17.0766 226.175 15.7769L226.054 15.5856L225.933 15.3944C223.828 16.7394 222.146 18.6022 220.887 20.9766L221.087 21.0831ZM226.054 15.5856L226.174 15.7779C228.243 14.479 230.554 13.8287 233.11 13.8287V13.602V13.3753C230.473 13.3753 228.079 14.0475 225.934 15.3934L226.054 15.5856ZM233.11 13.602V13.8287C234.631 13.8287 236.016 14.0521 237.268 14.4959L237.344 14.2821L237.419 14.0683C236.112 13.6053 234.675 13.3753 233.11 13.3753V13.602ZM237.344 14.2821L237.268 14.4959C238.523 14.9405 239.607 15.5688 240.525 16.3792L240.674 16.2091L240.823 16.0389C239.859 15.187 238.723 14.5306 237.419 14.0683L237.344 14.2821ZM240.674 16.2091L240.532 16.3854C241.489 17.1618 242.261 18.0661 242.848 19.0986L243.045 18.9861L243.241 18.8737C242.625 17.7903 241.815 16.8433 240.816 16.0327L240.674 16.2091ZM243.045 18.9861L242.852 19.1038C243.475 20.1348 243.86 21.238 244.007 22.4148L244.23 22.3867L244.454 22.3585C244.3 21.1172 243.894 19.9532 243.238 18.8685L243.045 18.9861ZM244.23 22.3867L244.305 22.1725L243.006 21.7191L242.932 21.9332L242.857 22.1474L244.156 22.6008L244.23 22.3867ZM242.932 21.9332H243.158V14.2254H242.932H242.706V21.9332H242.932ZM242.932 14.2254V14.4521H248.803V14.2254V13.9987H242.932V14.2254ZM248.803 14.2254H248.577V43.9798H248.803H249.028V14.2254H248.803ZM248.803 43.9798V43.7531H242.932V43.9798V44.2065H248.803V43.9798ZM242.932 43.9798H243.158V36.8955H242.932H242.706V43.9798H242.932ZM242.932 36.8955L242.995 37.1131L244.35 36.7164L244.287 36.4987L244.223 36.2811L242.869 36.6778L242.932 36.8955ZM244.287 36.4987L244.067 36.4495C243.849 37.4346 243.393 38.4076 242.694 39.3688L242.876 39.5025L243.058 39.6363C243.788 38.6328 244.273 37.6032 244.507 36.5479L244.287 36.4987ZM242.876 39.5025L242.693 39.37C242.032 40.2908 241.167 41.1233 240.094 41.8663L240.222 42.0529L240.351 42.2395C241.46 41.4712 242.364 40.6035 243.058 39.635L242.876 39.5025ZM240.222 42.0529L240.091 41.8685C239.056 42.6105 237.891 43.2052 236.593 43.652L236.666 43.8665L236.74 44.081C238.076 43.621 239.281 43.0067 240.353 42.2373L240.222 42.0529ZM236.666 43.8665L236.591 43.6527C235.337 44.0972 234.008 44.3199 232.602 44.3199V44.5466V44.7733C234.056 44.7733 235.437 44.5426 236.742 44.0803L236.666 43.8665ZM234.126 39.1625V39.3892C235.934 39.3892 237.538 38.9446 238.933 38.0499L238.811 37.8589L238.689 37.6679C237.375 38.5113 235.857 38.9358 234.126 38.9358V39.1625ZM238.811 37.8589L238.933 38.0499C240.324 37.1579 241.404 35.936 242.174 34.3897L241.972 34.2884L241.77 34.1871C241.035 35.6636 240.008 36.822 238.689 37.6679L238.811 37.8589ZM241.972 34.2884L242.173 34.3918C242.982 32.8067 243.384 31.0136 243.384 29.0176H243.158H242.932C242.932 30.9512 242.544 32.6718 241.771 34.185L241.972 34.2884ZM243.158 29.0176H243.384C243.384 27.0587 242.982 25.3027 242.172 23.7548L241.972 23.8602L241.773 23.9656C242.544 25.4404 242.932 27.1226 242.932 29.0176H243.158ZM241.972 23.8602L242.174 23.7589C241.404 22.2127 240.324 20.9907 238.933 20.0987L238.811 20.2897L238.689 20.4807C240.008 21.3266 241.035 22.485 241.77 23.9615L241.972 23.8602ZM238.811 20.2897L238.933 20.0987C237.538 19.204 235.934 18.7594 234.126 18.7594V18.9861V19.2128C235.857 19.2128 237.375 19.6373 238.689 20.4807L238.811 20.2897ZM234.126 18.9861V18.7594C232.356 18.7594 230.77 19.2046 229.375 20.0987L229.497 20.2897L229.619 20.4807C230.934 19.6368 232.435 19.2128 234.126 19.2128V18.9861ZM229.497 20.2897L229.373 20.1003C228.022 20.992 226.942 22.2122 226.136 23.7548L226.336 23.8602L226.536 23.9656C227.311 22.4855 228.339 21.3254 229.622 20.4791L229.497 20.2897ZM226.336 23.8602L226.134 23.7589C225.364 25.3058 224.981 27.0604 224.981 29.0176H225.207H225.433C225.433 27.1209 225.803 25.4372 226.538 23.9615L226.336 23.8602ZM225.207 29.0176H224.981C224.981 31.012 225.364 32.8036 226.133 34.3878L226.336 34.2884L226.539 34.189C225.803 32.675 225.433 30.9527 225.433 29.0176H225.207ZM226.336 34.2884L226.136 34.3938C226.942 35.9364 228.022 37.1566 229.373 38.0483L229.497 37.8589L229.622 37.6695C228.339 36.8233 227.311 35.6631 226.536 34.183L226.336 34.2884ZM229.497 37.8589L229.375 38.0499C230.77 38.944 232.356 39.3892 234.126 39.3892V39.1625V38.9358C232.435 38.9358 230.934 38.5118 229.619 37.6679L229.497 37.8589Z" fill="white"/>
</g>
</svg>
