<svg width="59" height="73" viewBox="0 0 59 73" fill="none" xmlns="http://www.w3.org/2000/svg">
<path d="M32.8518 9.1255C32.8518 11.5457 31.8904 13.8668 30.179 15.5782C28.4676 17.2896 26.1465 18.251 23.7263 18.251C21.3061 18.251 18.985 17.2896 17.2736 15.5782C15.5622 13.8668 14.6008 11.5457 14.6008 9.1255C14.6008 6.70526 15.5622 4.38416 17.2736 2.6728C18.985 0.961433 21.3061 0 23.7263 0C26.1465 0 28.4676 0.961433 30.179 2.6728C31.8904 4.38416 32.8518 6.70526 32.8518 9.1255Z" fill="#2F4F4F"/>
<path fill-rule="evenodd" clip-rule="evenodd" d="M44.5178 38.2541C43.5686 38.4443 42.5827 38.2497 41.777 37.713C40.9713 37.1763 40.4118 36.3415 40.2215 35.3923C39.601 32.2896 37.9256 30.9135 35.7318 30.1287C35.3858 30.004 35.0337 29.8968 34.6769 29.8075V69.0983C34.675 70.0859 34.2993 71.0363 33.6253 71.7583C32.9513 72.4803 32.0291 72.9204 31.0438 72.9902C30.0586 73.06 29.0835 72.7543 28.3145 72.1346C27.5455 71.5148 27.0395 70.627 26.8983 69.6494L24.2483 51.1028H23.2043L20.5543 69.6458C20.4131 70.623 19.9075 71.5107 19.1388 72.1304C18.3702 72.7501 17.3955 73.0561 16.4105 72.9867C15.4256 72.9174 14.5034 72.478 13.8291 71.7567C13.1549 71.0353 12.7785 70.0856 12.7757 69.0983V47.4526C9.38737 47.4526 6.13782 46.1066 3.74192 43.7107C1.34601 41.3148 0 38.0652 0 34.6769C0 31.2886 1.34601 28.039 3.74192 25.6431C6.13782 23.2472 9.38737 21.9012 12.7757 21.9012H29.2016V21.9085C31.764 21.945 35.104 22.153 38.1847 23.2554C42.3788 24.752 46.1787 27.9386 47.3832 33.9614C47.4774 34.4317 47.4779 34.9159 47.3849 35.3864C47.2918 35.8568 47.1069 36.3044 46.8408 36.7034C46.5747 37.1023 46.2326 37.445 45.834 37.7117C45.4354 37.9784 44.9882 38.1639 44.5178 38.2577M12.7757 29.2016C11.3236 29.2016 9.93089 29.7784 8.90407 30.8053C7.87726 31.8321 7.3004 33.2247 7.3004 34.6769C7.3004 36.129 7.87726 37.5217 8.90407 38.5485C9.93089 39.5753 11.3236 40.1522 12.7757 40.1522V29.2016Z" fill="#2F4F4F"/>
<path d="M47.4526 45.2625C47.4526 44.4485 47.7701 43.9302 48.23 43.5615C48.7939 43.132 49.4815 42.8964 50.1902 42.8898C50.8728 42.8898 51.6211 43.1344 52.1504 43.5615C52.4059 43.7627 52.6098 44.022 52.745 44.3178C52.8803 44.6137 52.9429 44.9375 52.9278 45.2625V69.3538C52.9278 70.0799 53.2163 70.7762 53.7297 71.2896C54.2431 71.803 54.9394 72.0914 55.6655 72.0914C56.3916 72.0914 57.0879 71.803 57.6013 71.2896C58.1147 70.7762 58.4031 70.0799 58.4031 69.3538V45.2625C58.4031 42.6708 57.2351 40.6304 55.5888 39.2981C54.0506 38.0841 52.1498 37.4209 50.1902 37.4146C48.3651 37.4146 46.3757 38.0205 44.7916 39.2981C43.9001 40.013 43.1833 40.9218 42.6956 41.9553C42.208 42.9888 41.9623 44.1198 41.9773 45.2625C41.9773 45.9885 42.2657 46.6849 42.7791 47.1983C43.2925 47.7117 43.9888 48.0001 44.7149 48.0001C45.441 48.0001 46.1373 47.7117 46.6507 47.1983C47.1641 46.6849 47.4526 45.9885 47.4526 45.2625Z" fill="#2F4F4F"/>
</svg>
