<svg width="73" height="73" viewBox="0 0 73 73" fill="none" xmlns="http://www.w3.org/2000/svg">
<path d="M48.6667 73C40.6907 73 33.5935 70.7356 27.375 66.2069C21.1565 61.6782 16.763 55.8315 14.1944 48.6667H0V40.5556H12.3694C12.1667 38.9333 12.0829 37.4301 12.118 36.0458C12.1531 34.6615 12.237 33.461 12.3694 32.4444H0V24.3333H14.1944C16.763 17.1685 21.1565 11.3218 27.375 6.79306C33.5935 2.26435 40.6907 0 48.6667 0C53.3306 0 57.7416 0.828685 61.8999 2.48606C66.0582 4.14343 69.7583 6.424 73 9.32778L67.2208 15.0056C64.7199 12.8426 61.8986 11.1528 58.7569 9.93611C55.6152 8.71944 52.2518 8.11111 48.6667 8.11111C42.9213 8.11111 37.7843 9.61572 33.2556 12.6249C28.7269 15.6342 25.3134 19.537 23.0153 24.3333H48.6667V32.4444H20.5819C20.3116 34.2694 20.2102 35.8754 20.2778 37.2624C20.3454 38.6494 20.4468 39.7471 20.5819 40.5556H48.6667V48.6667H23.0153C25.3134 53.4657 28.7269 57.3699 33.2556 60.3791C37.7843 63.3883 42.9213 64.8916 48.6667 64.8889C52.2491 64.8889 55.6125 64.2805 58.7569 63.0639C61.9013 61.8472 64.7226 60.1574 67.2208 57.9944L73 63.6722C69.7556 66.5787 66.0542 68.8606 61.8959 70.518C57.7376 72.1754 53.3279 73.0027 48.6667 73Z" fill="#2F4F4F"/>
</svg>
