<svg width="236" height="210" viewBox="0 0 236 210" fill="none" xmlns="http://www.w3.org/2000/svg">
<path d="M208.467 13.125C205.844 5.25 197.978 0 190.111 0H45.8889C36.7111 0 30.1556 5.25 27.5333 13.125L0 91.875V196.875C0 203.438 6.55556 210 13.1111 210H26.2222C34.0889 210 39.3333 203.438 39.3333 196.875V183.75H196.667V196.875C196.667 203.438 203.222 210 209.778 210H222.889C229.444 210 236 203.438 236 196.875V91.875L208.467 13.125ZM49.8222 26.25H184.867L199.289 65.625H36.7111L49.8222 26.25ZM209.778 157.5H26.2222V91.875H209.778V157.5ZM59 105C69.4889 105 78.6667 114.188 78.6667 124.688C78.6667 135.188 69.4889 144.375 59 144.375C48.5111 144.375 39.3333 135.188 39.3333 124.688C39.3333 114.188 48.5111 105 59 105ZM177 105C187.489 105 196.667 114.188 196.667 124.688C196.667 135.188 187.489 144.375 177 144.375C166.511 144.375 157.333 135.188 157.333 124.688C157.333 114.188 166.511 105 177 105Z" fill="#87CEEB" fill-opacity="0.5"/>
</svg>
